<?xml version="1.0" encoding="UTF-8"?>
<svg version="1.1" xmlns="http://www.w3.org/2000/svg" viewBox="0 0 2048 2048" width="2048" height="2048">
<path d="M0 0 C675.84 0 1351.68 0 2048 0 C2048 675.84 2048 1351.68 2048 2048 C1372.16 2048 696.32 2048 0 2048 C0 1372.16 0 696.32 0 0 Z " fill="none" transform="translate(0,0)"/>
<path d="M0 0 C37.62 0 75.24 0 114 0 C114 67.98 114 135.96 114 206 C193.53 206 273.06 206 355 206 C355 138.02 355 70.04 355 0 C391.96 0 428.92 0 467 0 C467.1209091 42.0987583 467.1209091 42.0987583 467.14648438 59.73242188 C467.1642892 71.91076444 467.18522689 84.08904476 467.22631836 96.26733398 C467.25623002 105.1364935 467.27557723 114.00560255 467.28226548 122.87481111 C467.28617474 127.57053051 467.29535573 132.26610553 467.31719017 136.96177864 C467.3375832 141.38337353 467.3438281 145.80476483 467.33932304 150.22640228 C467.34014698 151.84731847 467.34609588 153.4682416 467.35761642 155.08911705 C467.37260501 157.30710092 467.36893097 159.52432227 467.36076355 161.74232483 C467.36352893 162.98213639 467.36629431 164.22194796 467.36914349 165.49932957 C466.93446806 169.62145407 465.7639493 172.26587152 464 176 C463.36198108 178.22234251 462.77766885 180.46075922 462.24609375 182.7109375 C461.80040039 184.57878906 461.80040039 184.57878906 461.34570312 186.484375 C461.04599609 187.76828125 460.74628906 189.0521875 460.4375 190.375 C459.98213867 192.28925781 459.98213867 192.28925781 459.51757812 194.2421875 C458.66793481 197.82586822 457.82581619 201.41075315 457 205 C456.83848953 205.68929596 456.67697906 206.37859192 456.51057434 207.08877563 C452.56047155 224.29013302 451.53207142 241.38951567 451.66381836 258.99755859 C451.68762721 262.39314243 451.68431981 265.78794613 451.67773438 269.18359375 C451.69273875 280.96197619 452.13860493 292.36265692 454 304 C454.135271 304.97066406 454.27054199 305.94132812 454.40991211 306.94140625 C456.5478748 322.18385501 460.56194806 336.66712305 465.21557617 351.31884766 C466.68455738 356.33980988 467.12410024 360.85136801 467.12025452 366.09309387 C467.12153615 367.14693324 467.12153615 367.14693324 467.12284368 368.22206229 C467.12448717 370.56969855 467.11899567 372.91726293 467.11352539 375.26489258 C467.11324325 376.95033771 467.11340178 378.63578297 467.1139679 380.32122803 C467.11425482 384.89311096 467.10837505 389.46496766 467.10139394 394.03684449 C467.09514292 398.8161215 467.09455521 403.5953991 467.09336853 408.37467957 C467.09026038 417.4232985 467.08205393 426.47190535 467.07201904 435.52051896 C467.05875198 447.7490658 467.05335383 459.97761595 467.04751682 472.20616817 C467.03811371 491.47078783 467.01819133 510.735382 467 530 C430.37 530 393.74 530 356 530 C356 460.04 356 390.08 356 318 C276.14 318 196.28 318 114 318 C114 387.96 114 457.92 114 530 C76.38 530 38.76 530 0 530 C0 355.1 0 180.2 0 0 Z " fill="#F5F1E8" transform="translate(306,651)"/>
<path d="M0 0 C1.38446823 0.00515121 1.38446823 0.00515121 2.79690552 0.01040649 C16.35919619 0.0695024 29.81328379 0.23549232 43.25 2.25 C44.24257812 2.3953418 45.23515625 2.54068359 46.2578125 2.69042969 C71.95937337 6.60663467 97.50393859 13.59950602 121.25 24.25 C122.14025879 24.64380859 123.03051758 25.03761719 123.94775391 25.44335938 C151.26579301 37.63933461 176.45002908 53.68238611 198.25 74.25 C199.70306265 75.52685646 201.16121011 76.79795556 202.625 78.0625 C205.27120015 80.3658726 207.81839026 82.71707319 210.25 85.25 C208.76891127 88.7034417 206.82178301 90.89921326 204.14453125 93.515625 C203.32533203 94.32386719 202.50613281 95.13210938 201.66210938 95.96484375 C200.80423828 96.80144531 199.94636719 97.63804687 199.0625 98.5 C193.77929424 103.67356198 188.62069839 108.8516419 183.80737305 114.46777344 C181.57113458 117.02688001 179.18179448 119.37542422 176.75 121.75 C172.98507247 125.45856251 169.42172947 129.26878602 165.9921875 133.2890625 C163.9956211 135.53631885 161.88987054 137.63894927 159.75 139.75 C157.08411278 142.38462891 154.50513213 145.03244069 152.0625 147.875 C148.44546362 152.06494758 144.73880837 156.16878898 141 160.25 C140.38487549 160.93400879 139.76975098 161.61801758 139.13598633 162.32275391 C138.54970459 162.95874512 137.96342285 163.59473633 137.359375 164.25 C136.83311523 164.8275 136.30685547 165.405 135.76464844 166 C134.25 167.25 134.25 167.25 131.25 167.25 C129.70703125 165.78125 129.70703125 165.78125 128.0625 163.75 C116.8363508 150.45097263 103.18884814 140.07660841 88.25 131.25 C87.61787598 130.87633301 86.98575195 130.50266602 86.33447266 130.11767578 C69.67796928 120.44229792 51.23881097 113.5969774 32.25 110.25 C31.26644531 110.07484863 30.28289062 109.89969727 29.26953125 109.71923828 C19.56963618 108.15514415 10.04877468 107.84796303 0.25 107.875 C-0.56358978 107.8762085 -1.37717957 107.87741699 -2.21542358 107.87866211 C-15.41074764 107.93169889 -27.97116486 108.70590733 -40.75 112.25 C-41.70583984 112.51312988 -42.66167969 112.77625977 -43.64648438 113.04736328 C-83.45219453 124.39931451 -119.87950984 150.10588753 -141 186.125 C-150.44753939 203.47884883 -157.82790931 220.85149689 -161.75 240.25 C-161.93167725 241.12865723 -162.11335449 242.00731445 -162.30053711 242.91259766 C-163.86102407 251.19480736 -164.10904914 259.33978926 -164.0625 267.75 C-164.06034485 268.45209595 -164.0581897 269.15419189 -164.05596924 269.87756348 C-163.92863722 295.81355093 -158.12787522 318.95353014 -146.75 342.25 C-146.18410156 343.41144531 -145.61820313 344.57289063 -145.03515625 345.76953125 C-139.09206462 357.33408837 -131.56271556 367.64990011 -122.703125 377.14453125 C-121.10939276 378.86257461 -119.63541074 380.59865335 -118.1875 382.4375 C-108.3141428 393.82983523 -94.71817458 402.79668066 -81.75 410.25 C-81.16492676 410.58773438 -80.57985352 410.92546875 -79.97705078 411.2734375 C-67.73697919 418.27340319 -55.10319394 423.13061222 -41.5625 427 C-40.87502686 427.19875732 -40.18755371 427.39751465 -39.47924805 427.60229492 C-26.44730534 431.16284327 -13.48275871 431.69501509 -0.0625 431.6875 C1.29402176 431.68760574 1.29402176 431.68760574 2.677948 431.68771362 C39.91922228 431.57640832 74.67092729 420.14516239 104.25 397.25 C105.18972656 396.53328125 106.12945313 395.8165625 107.09765625 395.078125 C120.03490739 384.87724208 130.35733967 373.10281266 140.03588867 359.83129883 C141.25 358.25 141.25 358.25 143.25 356.25 C145.91538313 355.99390333 148.48167435 355.86225692 151.15283203 355.81665039 C151.96932724 355.79547653 152.78582245 355.77430267 153.62705994 355.75248718 C162.17542581 355.54720738 170.72701133 355.4616858 179.27734375 355.38500977 C183.33320649 355.34494925 187.38584474 355.26844135 191.44042969 355.15942383 C196.33852584 355.02793587 201.23361521 354.96068115 206.13338852 354.9387188 C207.99716929 354.91978716 209.86086624 354.87859425 211.72363663 354.81437874 C225.93857058 354.35027946 225.93857058 354.35027946 229.80455589 357.52766037 C232.77874931 361.04594647 234.48776764 365.00931247 236.25 369.25 C237.0680283 370.58615595 237.91663688 371.90496419 238.81640625 373.1875 C239.47511719 374.198125 240.13382813 375.20875 240.8125 376.25 C241.49441406 377.28125 242.17632813 378.3125 242.87890625 379.375 C244.25 382.25 244.25 382.25 244.25 384.57421875 C242.74368107 388.60479871 240.77382462 392.30400949 238.6875 396.0625 C238.20716309 396.92907227 237.72682617 397.79564453 237.23193359 398.68847656 C227.47551898 415.94817709 216.23389505 432.26717196 203.25 447.25 C202.1053125 448.58804688 202.1053125 448.58804688 200.9375 449.953125 C191.26877321 460.9726298 180.84334981 471.27132057 169.25 480.25 C168.26902344 481.03632812 167.28804687 481.82265625 166.27734375 482.6328125 C146.31440056 498.51727122 123.99549215 511.0142766 100.25 520.25 C99.4677002 520.55921387 98.68540039 520.86842773 97.87939453 521.18701172 C86.19897439 525.77994979 74.50193177 529.52690223 62.25 532.25 C60.57623291 532.64348633 60.57623291 532.64348633 58.86865234 533.04492188 C39.16947523 537.54669978 19.88125066 538.84056682 -0.3125 538.875 C-1.43274567 538.8818985 -2.55299133 538.888797 -3.70718384 538.89590454 C-70.4764894 539.12773604 -136.16164115 513.2627102 -185.41015625 468.37109375 C-187.53804815 466.44213665 -189.69720859 464.55963647 -191.875 462.6875 C-198.79193976 456.6299796 -204.79311096 450.13066174 -210.5390625 442.953125 C-212.49238588 440.56496284 -214.51893926 438.31469556 -216.625 436.0625 C-229.61774824 421.57158198 -239.39771281 403.6976258 -247.77929688 386.23876953 C-248.70204561 384.3482486 -249.66426649 382.48436179 -250.640625 380.62109375 C-260.74421211 360.88619448 -268.027883 338.0882767 -271.44433594 316.19238281 C-271.72612137 314.40173993 -272.05245104 312.61825797 -272.3828125 310.8359375 C-277.80371739 281.28818832 -277.00239024 247.52885949 -270.75 218.25 C-270.56808105 217.37166504 -270.38616211 216.49333008 -270.19873047 215.58837891 C-260.2667246 168.89286248 -237.90723501 124.72964397 -205.22265625 89.91015625 C-203.22078103 87.75648006 -201.31812291 85.57019017 -199.4375 83.3125 C-190.59867503 73.1688961 -180.03871116 64.5298465 -169.33154297 56.44628906 C-167.92155992 55.379769 -166.5243005 54.29647521 -165.12890625 53.2109375 C-132.92092923 28.79116085 -94.15563688 12.50234186 -54.625 5 C-53.96966278 4.87475952 -53.31432556 4.74951904 -52.63912964 4.6204834 C-35.07663666 1.30336537 -17.86852149 -0.10924375 0 0 Z " fill="#F5F1E8" transform="translate(1049.75,644.75)"/>
<path d="M0 0 C-0.61219238 7.46993805 -1.75328782 14.76627444 -3.1171875 22.1328125 C-3.32980728 23.29735458 -3.54242706 24.46189667 -3.76148987 25.66172791 C-4.34038834 28.82375308 -4.92322323 31.98501519 -5.50867844 35.14583206 C-5.8784683 37.14373858 -6.24691465 39.14188882 -6.61502075 41.1401062 C-15.47538536 89.21200839 -25.19303985 137.11395297 -35 185 C-35.66 185 -36.32 185 -37 185 C-39.18739141 179.80806832 -41.37447099 174.61600543 -43.5612793 169.42382812 C-44.30305853 167.66272556 -45.04491847 165.90165699 -45.78686523 164.140625 C-49.87608009 154.43459918 -53.96169852 144.72734941 -58 135 C-60.43622687 137.25044718 -62.09046831 139.56992575 -63.79296875 142.41015625 C-64.33228027 143.30387939 -64.8715918 144.19760254 -65.42724609 145.1184082 C-66.00812988 146.0899585 -66.58901367 147.06150879 -67.1875 148.0625 C-68.45378323 150.16184683 -69.72073543 152.26079026 -70.98828125 154.359375 C-71.97755615 156.0000293 -71.97755615 156.0000293 -72.98681641 157.67382812 C-76.25370259 163.07136115 -79.56393886 168.44199137 -82.875 173.8125 C-83.54241211 174.89619873 -84.20982422 175.97989746 -84.89746094 177.09643555 C-87.59452098 181.47543915 -90.2929584 185.85359122 -92.99267578 190.23095703 C-100.89743752 203.04817242 -108.7655388 215.88614044 -116.56945801 228.7649231 C-122.40235735 238.38960694 -128.28473012 247.98286152 -134.19140625 257.5625 C-138.48419468 264.52767648 -142.75221007 271.50729849 -147 278.5 C-152.64219003 287.78776426 -158.33053157 297.04642521 -164.0324707 306.29760742 C-168.44121582 313.45495207 -172.82383946 320.62759137 -177.1875 327.8125 C-182.11831047 335.9305686 -187.09636498 344.01765918 -192.10620117 352.0871582 C-196.10591788 358.53696633 -200.06083877 365.01305761 -204 371.5 C-210.60311851 382.373025 -217.29282745 393.19095959 -224 404 C-229.26005311 412.47838982 -234.42407982 421.00956425 -239.52563477 429.58422852 C-242.67385815 434.85711759 -245.92974287 440.05000029 -249.23901367 445.22314453 C-252.09971774 449.7341175 -254.86000762 454.30496572 -257.625 458.875 C-262.81054525 467.42109585 -268.04068023 475.93770726 -273.31274414 484.43066406 C-276.75548422 489.9797795 -280.1682738 495.54610413 -283.5625 501.125 C-287.35355412 507.353407 -291.21737966 513.531609 -295.125 519.6875 C-299.00506127 525.80146127 -302.80669944 531.95071733 -306.50756836 538.17456055 C-309.67377101 543.48757909 -312.92413259 548.74620648 -316.1875 554 C-320.83062397 561.47669002 -325.43238567 568.97694513 -330 576.5 C-336.07585318 586.5032363 -342.21815841 596.46368296 -348.39111328 606.40722656 C-351.09781706 610.76916801 -353.79858911 615.1347794 -356.5 619.5 C-357.58330532 621.25001734 -358.66663865 623.00001735 -359.75 624.75 C-360.28625 625.61625 -360.8225 626.4825 -361.375 627.375 C-363.8125 631.3125 -363.8125 631.3125 -366.25 635.25 C-366.78633057 636.11641113 -367.32266113 636.98282227 -367.87524414 637.87548828 C-368.95765159 639.62393007 -370.04017097 641.37230257 -371.12280273 643.12060547 C-373.84622817 647.51888226 -376.5676444 651.91837913 -379.28515625 656.3203125 C-385.14968452 665.81476502 -391.04430373 675.28742879 -397.04321289 684.69775391 C-399.82038855 689.06888389 -402.46715485 693.48259619 -405 698 C-405.66 698 -406.32 698 -407 698 C-408.41357422 696.09838867 -408.41357422 696.09838867 -410.0546875 693.41796875 C-410.6633667 692.43272217 -411.2720459 691.44747559 -411.89916992 690.43237305 C-412.55119385 689.36156494 -413.20321777 688.29075684 -413.875 687.1875 C-415.24307359 684.96849348 -416.61156799 682.74974634 -417.98046875 680.53125 C-418.66157715 679.42265625 -419.34268555 678.3140625 -420.04443359 677.171875 C-422.72584431 672.82270047 -425.45167935 668.50257898 -428.1875 664.1875 C-429.16412722 662.64327009 -430.14069008 661.09899949 -431.1171875 659.5546875 C-432.07804862 658.03640999 -433.0389858 656.51818062 -434 655 C-442.4049572 641.72210766 -450.75536008 628.4110494 -459.07666016 615.08056641 C-462.21589222 610.05253516 -465.35803447 605.02632342 -468.5 600 C-472.28665553 593.94234112 -476.07260997 587.88424953 -479.85546875 581.82421875 C-481.13272741 579.7785927 -482.41007065 577.73301946 -483.6875 575.6875 C-484.31470947 574.68315918 -484.94191895 573.67881836 -485.58813477 572.64404297 C-489.35053657 566.62439709 -493.13583826 560.61990328 -496.9375 554.625 C-502.3985301 546.00912119 -507.73596583 537.31886757 -513.07128906 528.62475586 C-517.53981888 521.35083986 -522.06198411 514.11431254 -526.63500977 506.90576172 C-531.92553396 498.558709 -537.11519397 490.14992049 -542.30615234 481.74072266 C-544.09278631 478.84986752 -545.88376915 475.96174285 -547.67578125 473.07421875 C-548.27398682 472.10983887 -548.87219238 471.14545898 -549.48852539 470.15185547 C-550.64206738 468.29243852 -551.7961799 466.43337536 -552.95092773 464.57470703 C-553.72545288 463.32536377 -553.72545288 463.32536377 -554.515625 462.05078125 C-554.97227539 461.31512939 -555.42892578 460.57947754 -555.89941406 459.8215332 C-557 458 -557 458 -558 456 C-630.27 455.67 -702.54 455.34 -777 455 C-777 425.3 -777 395.6 -777 365 C-741.64410749 364.62502509 -706.29014869 364.3112209 -670.93286521 364.1318894 C-666.7561026 364.11062809 -662.57934421 364.08862454 -658.40258789 364.06616211 C-657.15534373 364.05947319 -657.15534373 364.05947319 -655.88290272 364.05264915 C-642.42960166 363.97873068 -628.97753898 363.84472689 -615.52497192 363.68840247 C-601.71511459 363.52926796 -587.90590448 363.43496881 -574.09516793 363.40049559 C-565.57640365 363.37719871 -557.06113937 363.30371646 -548.54345313 363.16542006 C-542.69763045 363.07535632 -536.85360903 363.04843928 -531.0071434 363.07047658 C-527.63401148 363.08134625 -524.27187294 363.05572874 -520.89900017 362.97350693 C-501.19597226 362.51682272 -501.19597226 362.51682272 -495.86832261 366.65625119 C-492.3045525 370.62740723 -489.99641231 375.02649716 -487.92518103 379.9124223 C-486.56095622 382.99065801 -484.79017518 385.68499469 -482.953125 388.50390625 C-481.71697755 390.52235308 -480.48261736 392.5418955 -479.25 394.5625 C-477.87176961 396.81161651 -476.49302962 399.06040927 -475.11328125 401.30859375 C-474.42830566 402.42476074 -473.74333008 403.54092773 -473.03759766 404.69091797 C-468.02391321 412.83319918 -462.93612122 420.92948927 -457.85888672 429.03222656 C-454.73535599 434.01904552 -451.6179716 439.0097041 -448.5 444 C-444.72810159 450.03612034 -440.95545045 456.07176486 -437.1796875 462.10546875 C-434.06395677 467.08498164 -430.95155437 472.06655936 -427.84179688 477.04980469 C-426.59405156 479.04844658 -425.34532349 481.04647522 -424.09570312 483.04394531 C-422.269054 485.96488733 -420.44652752 488.88836214 -418.625 491.8125 C-418.07118652 492.69639404 -417.51737305 493.58028809 -416.94677734 494.4909668 C-416.44098145 495.30476807 -415.93518555 496.11856934 -415.4140625 496.95703125 C-414.74818115 498.02401245 -414.74818115 498.02401245 -414.06884766 499.11254883 C-413 501 -413 501 -412 504 C-411.34 504 -410.68 504 -410 504 C-409.72849121 503.27506348 -409.45698242 502.55012695 -409.17724609 501.80322266 C-408.02896254 499.06896472 -406.71066384 496.67556714 -405.1640625 494.1484375 C-404.60066162 493.22466309 -404.03726074 492.30088867 -403.45678711 491.34912109 C-402.85229736 490.36766113 -402.24780762 489.38620117 -401.625 488.375 C-400.99795166 487.35100098 -400.37090332 486.32700195 -399.72485352 485.27197266 C-395.36255005 478.16593302 -390.93748328 471.10115819 -386.46899414 464.06152344 C-381.11813196 455.62964738 -375.87369338 447.13276845 -370.62792969 438.63525391 C-369.03797634 436.06147519 -367.44534826 433.48937575 -365.8515625 430.91796875 C-360.60382134 422.45085424 -355.36834003 413.97647973 -350.15356445 405.48901367 C-344.30475291 395.97000074 -338.43179114 386.46755481 -332.5 377 C-324.593166 364.37837712 -316.79248115 351.69244151 -309 339 C-300.59925959 325.31682205 -292.17353453 311.6514293 -283.64868164 298.04516602 C-278.3368973 289.55900301 -273.0843962 281.03712538 -267.84423828 272.5065918 C-263.70328533 265.76554086 -259.54650611 259.03467902 -255.375 252.3125 C-250.91823129 245.12818884 -246.51004283 237.91578747 -242.125 230.6875 C-236.6942042 221.7371918 -231.16989833 212.84922569 -225.60595703 203.98120117 C-221.34935317 197.18660415 -217.15540934 190.35689442 -213 183.5 C-207.6127888 174.61049348 -202.12983229 165.7852791 -196.60546875 156.98046875 C-192.34906851 150.18609072 -188.15525727 143.35664349 -184 136.5 C-178.62216841 127.62597089 -173.14960188 118.81558306 -167.6340332 110.02661133 C-162.48061374 101.80151904 -157.41889207 93.5228093 -152.390625 85.22070312 C-151.84277344 84.31642578 -151.29492188 83.41214844 -150.73046875 82.48046875 C-150.24989014 81.68535889 -149.76931152 80.89024902 -149.27416992 80.07104492 C-148.21984295 78.3573343 -147.11609339 76.67414008 -146 75 C-157.06834652 72.85258086 -168.14498238 70.76243688 -179.25 68.8125 C-180.6577771 68.56258301 -180.6577771 68.56258301 -182.09399414 68.30761719 C-186.41104754 67.55669121 -190.68229271 66.9114281 -195.046875 66.51171875 C-199 66 -199 66 -201 64 C-167.8477236 47.24671223 -131.74229248 35.40163757 -96.3125 24.5 C-95.50101501 24.2501535 -94.68953003 24.00030701 -93.85345459 23.7428894 C-79.69534041 19.39948382 -65.437954 15.56209153 -51.0625 12 C-48.97394866 11.48050765 -46.88540699 10.96097638 -44.796875 10.44140625 C-43.80107422 10.19406738 -42.80527344 9.94672852 -41.77929688 9.69189453 C-39.39873344 9.09926305 -37.01926177 8.50265023 -34.640625 7.90234375 C-26.97980597 5.97150467 -19.30713348 4.0941015 -11.625 2.25 C-10.70178955 2.02691162 -9.7785791 1.80382324 -8.82739258 1.57397461 C-7.96911865 1.36909424 -7.11084473 1.16421387 -6.2265625 0.953125 C-5.07534912 0.67710449 -5.07534912 0.67710449 -3.90087891 0.39550781 C-2 0 -2 0 0 0 Z " fill="#2FBF8F" transform="translate(1845,529)"/>
<path d="M0 0 C7.38910997 5.21081743 14.6286112 12.66270166 16.65234375 21.6796875 C17.89778751 33.28111876 17.61013062 44.51028746 10.8046875 54.3515625 C4.79066165 61.72993179 -2.98790857 66.66242481 -12.34765625 68.6796875 C-21.61262423 69.5148363 -31.3747769 70.03361688 -39.34765625 64.6796875 C-40.03988281 64.23238281 -40.73210938 63.78507812 -41.4453125 63.32421875 C-50.32091178 57.13618411 -55.39393623 49.82237297 -57.9296875 39.25390625 C-59.75210679 28.02984729 -58.16359573 18.44664724 -51.515625 9.10546875 C-38.44264938 -6.49443313 -17.97386711 -10.10843109 0 0 Z " fill="#F5F1E8" transform="translate(1040.34765625,1294.3203125)"/>
<path d="M0 0 C4.62 0 9.24 0 14 0 C19.33185686 15.89862773 24.36216744 31.88513477 29 48 C31.00548624 44.99177064 31.90088935 42.57315251 32.98828125 39.14453125 C33.36275391 37.97124268 33.73722656 36.7979541 34.12304688 35.58911133 C34.51556641 34.34282959 34.90808594 33.09654785 35.3125 31.8125 C35.71768313 30.53852327 36.12328295 29.26467899 36.52929688 27.9909668 C38.26145454 22.54159598 39.9779294 17.08758155 41.66796875 11.625 C41.89895264 10.87887451 42.12993652 10.13274902 42.36791992 9.36401367 C42.95810378 7.44848065 43.54180115 5.53095246 44.125 3.61328125 C45 1 45 1 46 0 C48.18639453 -0.07258946 50.37500389 -0.08373783 52.5625 -0.0625 C54.35880859 -0.04896484 54.35880859 -0.04896484 56.19140625 -0.03515625 C57.11824219 -0.02355469 58.04507812 -0.01195312 59 0 C59.25652344 0.98613281 59.51304688 1.97226563 59.77734375 2.98828125 C62.41510992 12.897375 65.4479639 22.64597308 68.6875 32.375 C69.27615845 34.14870972 69.27615845 34.14870972 69.87670898 35.95825195 C72.078735 42.62812364 72.078735 42.62812364 75 49 C75.30292969 47.8140625 75.60585937 46.628125 75.91796875 45.40625 C78.14147449 36.78377972 80.47157113 28.22843877 83.18310547 19.74609375 C85.27235268 13.20410727 87.1406452 6.61103928 89 0 C93.95 0 98.9 0 104 0 C101.86960735 9.09513787 99.52908208 17.86379897 96.28271484 26.62280273 C93.92788778 33.00318671 91.97300964 39.49300324 90 46 C89.287511 48.31933405 88.57396845 50.63834472 87.859375 52.95703125 C87.51132813 54.08818359 87.16328125 55.21933594 86.8046875 56.38476562 C85.203125 61.58984375 83.6015625 66.79492188 82 72 C77.38 72 72.76 72 68 72 C64.38385477 63.51927846 61.66880142 54.84141969 58.99853516 46.02954102 C58.24371244 43.5417773 57.47970293 41.05695971 56.71484375 38.57226562 C56.23122447 36.98714576 55.74813207 35.40186502 55.265625 33.81640625 C55.03756165 33.0758046 54.80949829 32.33520294 54.57452393 31.57215881 C53.68183517 28.60864981 53 26.11370737 53 23 C52.34 23 51.68 23 51 23 C50.88793716 23.54386856 50.77587433 24.08773712 50.66041565 24.64808655 C49.46690302 30.24785623 47.95858066 35.67000751 46.21484375 41.12109375 C45.95369278 41.94706558 45.69254181 42.77303741 45.42347717 43.6240387 C44.87649912 45.35141586 44.32768659 47.07821313 43.77709961 48.80444336 C42.93237647 51.45356782 42.09367083 54.10454184 41.25585938 56.75585938 C40.72170146 58.44021434 40.18720841 60.12446307 39.65234375 61.80859375 C39.40129379 62.6012413 39.15024384 63.39388885 38.8915863 64.21055603 C37.11646506 69.76706988 37.11646506 69.76706988 36 72 C31.38 72 26.76 72 22 72 C21.5153125 70.46214844 21.030625 68.92429687 20.53125 67.33984375 C17.09982412 56.50721851 13.59811223 45.714529 9.8125 35 C7.42063505 28.2063142 5.11306299 21.40522297 3.0625 14.5 C2.86309814 13.83613281 2.66369629 13.17226562 2.45825195 12.48828125 C1.25489306 8.3287868 0.52454459 4.28470109 0 0 Z " fill="#F5F1E8" transform="translate(1070,1290)"/>
<path d="M0 0 C41.73996914 0 41.73996914 0 50.59375 8.45703125 C55.39204666 13.72182898 55.53133085 18.93844518 55.34375 25.80859375 C54.56227739 33.06385647 51.27349104 37.29006543 45.78125 41.87109375 C43.85531803 43.09169537 42.20766758 43.49802388 40 44 C40.47945068 44.74161377 40.95890137 45.48322754 41.45288086 46.24731445 C43.23155487 49.00198214 45.00726608 51.7585124 46.78100586 54.51635742 C47.54903284 55.7091745 48.31823018 56.90123887 49.08862305 58.0925293 C50.19629132 59.8058086 51.29971107 61.5217581 52.40234375 63.23828125 C53.06741943 64.26993408 53.73249512 65.30158691 54.41772461 66.36450195 C56 69 56 69 57 72 C51.62929188 73.2268115 46.21123123 74.26393471 41 72 C34.28524326 65.35931574 30.45382361 55.63455904 27 47 C22.71 47 18.42 47 14 47 C14 55.58 14 64.16 14 73 C9.38 73 4.76 73 0 73 C0 48.91 0 24.82 0 0 Z " fill="#F5F1E8" transform="translate(909,1290)"/>
<path d="M0 0 C37.52941176 0 37.52941176 0 47.4375 6.125 C51.71706416 10.92646223 53.65765211 16.21231008 54.4375 22.5625 C53.58964949 29.2241826 51.84495449 35.15504551 47 40 C41.59459459 44 41.59459459 44 39 44 C39.33733154 44.52843506 39.67466309 45.05687012 40.0222168 45.60131836 C41.58000487 48.04500678 43.13376508 50.49123271 44.6875 52.9375 C45.21794922 53.76830078 45.74839844 54.59910156 46.29492188 55.45507812 C49.72892824 60.86943172 52.95426328 66.35800941 56 72 C42.94306573 73.51238621 42.94306573 73.51238621 38.7265625 70.23046875 C36.89996383 67.57632655 35.45694766 64.87382926 34 62 C33.2836617 60.82929284 32.55385685 59.66674508 31.8125 58.51171875 C26 49.44792593 26 49.44792593 26 47 C22.04 47 18.08 47 14 47 C14 55.25 14 63.5 14 72 C9.38 72 4.76 72 0 72 C0 48.24 0 24.48 0 0 Z " fill="#F5F1E8" transform="translate(1750,1290)"/>
<path d="M0 0 C12 0 12 0 15.26953125 2.578125 C16.15644648 3.77394124 17.00255671 5.00076544 17.8125 6.25 C18.52853394 7.24253784 18.52853394 7.24253784 19.2590332 8.25512695 C20.30267756 9.70377259 21.33067633 11.16378731 22.34472656 12.63330078 C24.72135816 16.03139322 27.23612147 19.31944803 29.74291992 22.62207031 C31.59518236 25.06570794 33.43161606 27.520207 35.26171875 29.98046875 C39.49430908 35.66372745 43.74827916 41.33103888 48 47 C48.33 31.49 48.66 15.98 49 0 C53.62 0 58.24 0 63 0 C63 23.76 63 47.52 63 72 C50 72 50 72 46.421875 69.140625 C45.48853174 67.87414641 44.59864691 66.57472491 43.75 65.25 C43.25878662 64.56405762 42.76757324 63.87811523 42.26147461 63.17138672 C41.26951051 61.7817004 40.29439328 60.3798179 39.33740234 58.96582031 C37.50856463 56.27764922 35.53703555 53.70736161 33.5625 51.125 C32.86125 50.18011719 32.16 49.23523437 31.4375 48.26171875 C27.79514458 43.36418521 24.06072315 38.53589818 20.34008789 33.69775391 C19.80633545 33.00214355 19.27258301 32.3065332 18.72265625 31.58984375 C18.24578369 30.96972412 17.76891113 30.34960449 17.27758789 29.71069336 C16.13295568 28.17802799 15.06109465 26.59164198 14 25 C13.67 40.51 13.34 56.02 13 72 C8.71 72 4.42 72 0 72 C0 48.24 0 24.48 0 0 Z " fill="#F5F1E8" transform="translate(564,1290)"/>
<path d="M0 0 C40.9375 0 40.9375 0 49.0625 8 C54.79946396 15.18172506 54.87661096 22.08625068 54 31 C51.91279912 37.89261687 47.23262958 42.56247374 41 46 C35.44245699 48.48782274 30.08761927 48.22921902 24.125 48.125 C20.78375 48.08375 17.4425 48.0425 14 48 C14 55.92 14 63.84 14 72 C9.38 72 4.76 72 0 72 C0 48.24 0 24.48 0 0 Z " fill="#F5F1E8" transform="translate(402,1290)"/>
<path d="M0 0 C13 0 13 0 16.76953125 3.41796875 C17.82716206 4.97933712 18.83965778 6.57194061 19.8125 8.1875 C20.97081288 9.92787882 22.13240437 11.66607899 23.296875 13.40234375 C23.89177734 14.31612793 24.48667969 15.22991211 25.09960938 16.17138672 C28.36510377 21.03187208 31.97601609 25.62422982 35.5625 30.25 C36.87817207 31.9621063 38.19206756 33.67557975 39.50390625 35.390625 C40.33643921 36.4739209 40.33643921 36.4739209 41.18579102 37.57910156 C43.50998673 40.68053134 45.74731749 43.84624448 48 47 C48.33 31.49 48.66 15.98 49 0 C53.29 0 57.58 0 62 0 C62 23.76 62 47.52 62 72 C50 72 50 72 47.31640625 70.2265625 C46.73761719 69.36804687 46.15882812 68.50953125 45.5625 67.625 C44.84707031 66.61953125 44.13164063 65.6140625 43.39453125 64.578125 C43.01635254 64.01029297 42.63817383 63.44246094 42.24853516 62.85742188 C40.36617289 60.05706753 38.3657956 57.34520507 36.37866211 54.61865234 C35.34702308 53.19746172 34.32220804 51.77127127 33.30688477 50.33837891 C27.41953693 42.0437388 21.19527116 34.10150844 15 26 C14.67 41.18 14.34 56.36 14 72 C9.38 72 4.76 72 0 72 C0 48.24 0 24.48 0 0 Z " fill="#F5F1E8" transform="translate(1526,1290)"/>
<path d="M0 0 C4.62 0 9.24 0 14 0 C17.47565122 6.61494909 20.19630818 13.40436394 22.875 20.375 C26.1134551 28.72695369 29.40766506 37.05040777 32.83203125 45.328125 C33.15292725 46.10382843 33.47382324 46.87953186 33.80444336 47.67874146 C35.39014168 51.50629431 36.98231124 55.33107532 38.57958984 59.15380859 C39.16116723 60.55304559 39.74271184 61.95229621 40.32421875 63.3515625 C40.73121758 64.31838959 40.73121758 64.31838959 41.1464386 65.30474854 C43 69.77406571 43 69.77406571 43 72 C38.38 72 33.76 72 29 72 C24.125 61.625 24.125 61.625 23 56 C7.16 56.495 7.16 56.495 -9 57 C-10.98 61.95 -12.96 66.9 -15 72 C-19.62 72 -24.24 72 -29 72 C-26.40606225 62.23574764 -22.39967013 53.14204547 -18.4375 43.875 C-17.71752135 42.18042108 -16.99812401 40.48559505 -16.27929688 38.79052734 C-15.20320791 36.25334849 -14.12671726 33.71634857 -13.04818726 31.1802063 C-9.9985159 24.00895596 -6.98967039 16.82146385 -4 9.625 C-3.58548584 8.62839355 -3.17097168 7.63178711 -2.74389648 6.60498047 C-1.82855782 4.40361395 -0.91414628 2.20186194 0 0 Z " fill="#F5F1E8" transform="translate(498,1290)"/>
<path d="M0 0 C1.87248064 1.38300763 3.66649276 2.79564818 5.4140625 4.33203125 C3.5285477 8.61562798 1.05440549 10.48306717 -2.5859375 13.33203125 C-4.60101288 12.32674756 -6.61389472 11.31781117 -8.62109375 10.296875 C-9.29011719 9.95785156 -9.95914063 9.61882812 -10.6484375 9.26953125 C-11.32003906 8.92792969 -11.99164062 8.58632812 -12.68359375 8.234375 C-18.34091263 5.55092395 -24.85441235 5.27497805 -30.875 6.98046875 C-37.22020529 9.84683562 -41.632394 14.69148742 -44.4609375 21.01953125 C-46.82268508 28.37509451 -46.67445876 35.82527284 -43.3984375 42.83203125 C-40.01869227 48.76557273 -35.78762729 51.62759066 -29.5859375 54.33203125 C-21.7410475 55.2603129 -14.71652643 54.75471394 -7.5859375 51.33203125 C-7.2559375 47.04203125 -6.9259375 42.75203125 -6.5859375 38.33203125 C-11.5359375 38.33203125 -16.4859375 38.33203125 -21.5859375 38.33203125 C-21.5859375 34.37203125 -21.5859375 30.41203125 -21.5859375 26.33203125 C-12.0159375 26.33203125 -2.4459375 26.33203125 7.4140625 26.33203125 C7.6451208 30.48337873 7.84328965 34.61220608 7.96337891 38.76489258 C8.01341663 40.17288968 8.08148243 41.58037348 8.16845703 42.98657227 C8.86949774 54.61972428 8.86949774 54.61972428 5.33911133 58.77319336 C2.75739725 60.61968383 0.30308148 62.02383555 -2.5859375 63.33203125 C-3.55088135 63.77095703 -4.5158252 64.20988281 -5.51000977 64.66210938 C-14.80187763 68.56216607 -26.90068288 69.03967139 -36.5859375 66.20703125 C-46.19496306 62.20017889 -53.33436928 56.02756818 -57.90625 46.61328125 C-61.7169067 36.70024423 -62.35913579 26.05645474 -58.6484375 16.01953125 C-53.39805913 5.12279624 -45.76010784 -1.28562409 -34.5859375 -5.66796875 C-22.95723777 -9.47329529 -9.99019488 -6.44382661 0 0 Z " fill="#F5F1E8" transform="translate(879.5859375,1295.66796875)"/>
<path d="M0 0 C4.62 0 9.24 0 14 0 C14 9.9 14 19.8 14 30 C25.22 30 36.44 30 48 30 C48 20.1 48 10.2 48 0 C52.62 0 57.24 0 62 0 C62 23.76 62 47.52 62 72 C57.38 72 52.76 72 48 72 C48 61.77 48 51.54 48 41 C36.78 41 25.56 41 14 41 C14 51.23 14 61.46 14 72 C9.38 72 4.76 72 0 72 C0 48.24 0 24.48 0 0 Z " fill="#F5F1E8" transform="translate(1261,1290)"/>
<path d="M0 0 C4.29 0 8.58 0 13 0 C13 9.9 13 19.8 13 30 C24.22 30 35.44 30 47 30 C47 20.1 47 10.2 47 0 C51.29 0 55.58 0 60 0 C60 23.76 60 47.52 60 72 C55.71 72 51.42 72 47 72 C47 61.77 47 51.54 47 41 C35.78 41 24.56 41 13 41 C13 51.23 13 61.46 13 72 C8.71 72 4.42 72 0 72 C0 48.24 0 24.48 0 0 Z " fill="#F5F1E8" transform="translate(193,1290)"/>
<path d="M0 0 C4.29 0 8.58 0 13 0 C13.0093457 1.44246094 13.01869141 2.88492187 13.02832031 4.37109375 C13.06833015 9.74623983 13.13412038 15.12082019 13.20751953 20.49560547 C13.23566532 22.81747139 13.25691149 25.13943199 13.27099609 27.46142578 C13.29251355 30.80810799 13.33921124 34.15365949 13.390625 37.5 C13.39185364 38.5305249 13.39308228 39.5610498 13.39434814 40.62280273 C13.54043251 47.88613506 14.61975386 53.72218556 20.0625 59 C25.86652004 60.97583661 31.75324826 60.80241134 37.5 58.75 C42.0519319 55.56364767 43.57836337 52.31374227 45 47 C45.32737402 43.37972248 45.37196942 39.76628528 45.4140625 36.1328125 C45.43342865 35.09808807 45.4527948 34.06336365 45.4727478 32.99728394 C45.53231842 29.70660533 45.57883905 26.41589132 45.625 23.125 C45.66320048 20.88800595 45.70225341 18.65102628 45.7421875 16.4140625 C45.83800156 10.94282575 45.92211585 5.47152017 46 0 C50.29 0 54.58 0 59 0 C59.07455095 6.79522342 59.12879144 13.59020499 59.16479492 20.38574219 C59.17981541 22.69405265 59.20023779 25.00233488 59.22631836 27.31054688 C59.26299885 30.64199825 59.27979431 33.97306995 59.29296875 37.3046875 C59.30845261 38.32488983 59.32393646 39.34509216 59.33988953 40.39620972 C59.34223431 50.53995813 57.50704395 58.66074723 50.26953125 66.015625 C42.33091766 72.956788 34.54419351 73.97314898 24.296875 73.48046875 C17.02616196 72.85242848 11.66072327 70.04667541 6.625 64.8125 C0.64945455 56.72623446 -0.58177645 48.71820065 -0.390625 38.8671875 C-0.38496521 37.74933868 -0.37930542 36.63148987 -0.37347412 35.47976685 C-0.3512622 31.94439039 -0.30109311 28.41006496 -0.25 24.875 C-0.22991543 22.46355641 -0.21166811 20.05209677 -0.1953125 17.640625 C-0.15144701 11.76001787 -0.08252448 5.88018651 0 0 Z " fill="#F5F1E8" transform="translate(1673,1290)"/>
<path d="M0 0 C15.18 0 30.36 0 46 0 C46 3.96 46 7.92 46 12 C35.11 12 24.22 12 13 12 C13 17.94 13 23.88 13 30 C22.24 30 31.48 30 41 30 C41 33.63 41 37.26 41 41 C31.76 41 22.52 41 13 41 C13 47.6 13 54.2 13 61 C23.89 61 34.78 61 46 61 C46 64.63 46 68.26 46 72 C30.82 72 15.64 72 0 72 C0 48.24 0 24.48 0 0 Z " fill="#F5F1E8" transform="translate(1462,1290)"/>
<path d="M0 0 C14.85 0 29.7 0 45 0 C45 3.96 45 7.92 45 12 C34.44 12 23.88 12 13 12 C13 17.94 13 23.88 13 30 C22.24 30 31.48 30 41 30 C41 33.63 41 37.26 41 41 C31.76 41 22.52 41 13 41 C13 47.6 13 54.2 13 61 C23.56 61 34.12 61 45 61 C45 64.63 45 68.26 45 72 C30.15 72 15.3 72 0 72 C0 48.24 0 24.48 0 0 Z " fill="#F5F1E8" transform="translate(1822,1290)"/>
<path d="M0 0 C1.31977688 0.92722786 2.63506058 1.86107262 3.9375 2.8125 C3.03720429 4.15694159 2.11661978 5.48781438 1.1875 6.8125 C0.42179687 7.92625 0.42179687 7.92625 -0.359375 9.0625 C-0.92140625 9.64 -1.4834375 10.2175 -2.0625 10.8125 C-6.00994599 10.8125 -6.56256871 10.71742486 -9.625 8.8125 C-14.65915626 6.1728675 -19.49048063 5.95928453 -25.0625 6.8125 C-28.33185144 8.18962361 -28.33185144 8.18962361 -30.0625 10.8125 C-30.7122754 14.2779688 -30.60970299 15.96682265 -28.6875 18.9375 C-23.99906067 22.28638523 -18.58672268 23.93807374 -13.17578125 25.8125 C-5.00763102 28.66522368 1.86494914 31.66739829 5.9375 39.8125 C6.91034047 47.59522375 6.09608737 53.23513259 1.6484375 59.75 C-2.13760321 64.31399428 -6.46848951 66.24985388 -12.0625 67.8125 C-26.09509632 69.00499336 -36.06832268 67.02549775 -47.0625 57.8125 C-45.23745091 53.88949728 -42.87979174 51.07462728 -40.0625 47.8125 C-37.63672881 48.64635885 -35.48532853 49.48748241 -33.44140625 51.05859375 C-27.96033867 55.21949021 -23.02783942 55.56266637 -16.234375 55.29296875 C-13.3543515 54.85670903 -11.81607814 54.60256888 -9.625 52.75 C-7.78829285 49.83347091 -7.78829285 49.83347091 -8 46.1875 C-9.21764666 42.31968121 -9.68642974 41.83814216 -13.0625 39.8125 C-15.73107664 38.7499597 -18.45473088 37.88147102 -21.1875 37 C-38.01262334 31.27233651 -38.01262334 31.27233651 -42.6875 24.75 C-45.14530053 19.5066922 -44.77249228 13.42723489 -44.0625 7.8125 C-41.17043492 1.58343676 -36.22503502 -2.57337948 -29.875 -5 C-18.99910863 -8.19879158 -9.28914486 -6.12996611 0 0 Z " fill="#F5F1E8" transform="translate(371.0625,1295.1875)"/>
<path d="M0 0 C3.1052539 1.86613816 6.06235197 3.88229791 9 6 C9.99 6.66 10.98 7.32 12 8 C11.43040847 11.62613199 10.07625466 13.25517741 7.4375 15.75 C6.47650391 16.67039062 6.47650391 16.67039062 5.49609375 17.609375 C5.00238281 18.06828125 4.50867188 18.5271875 4 19 C3.5153125 18.60167969 3.030625 18.20335937 2.53125 17.79296875 C-3.98524287 12.64243304 -10.12946901 9.24111789 -18.63671875 9.59375 C-25.17214084 10.71719446 -30.43660573 13.77987306 -34.5 19 C-39.13371476 25.68117011 -39.9645855 32.00487895 -39 40 C-36.36266262 48.19498827 -32.19333895 52.61555236 -24.8125 56.8125 C-17.56905828 59.06865398 -11.38576251 59.01478086 -4.5 55.6875 C-1.55025701 54.09291491 0.73488527 52.47565424 3 50 C6.99500618 51.3697164 9.80009492 53.25722422 13 56 C9.62005123 63.48417229 2.88895353 67.19007463 -4.546875 70.0859375 C-13.56596701 72.47334421 -24.6692075 72.51377485 -33 68 C-40.44441458 63.53335125 -46.03247307 58.78660898 -50 51 C-50.33773437 50.34902344 -50.67546875 49.69804688 -51.0234375 49.02734375 C-54.6179144 40.46985059 -54.57261476 28.28907124 -51.5625 19.5625 C-46.53595624 9.20958355 -37.68768761 2.07296304 -27.15625 -2.13671875 C-18.49673477 -4.50522477 -8.07160009 -4.1428099 0 0 Z " fill="#F5F1E8" transform="translate(751,1292)"/>
<path d="M0 0 C6.91370111 3.91776396 11.05057182 8.87627937 13.2109375 16.5546875 C14.95074746 25.2537373 13.50789113 31.48780462 8.6875 38.9375 C4.44676621 44.07101985 0.09552361 47.45241635 -6.5234375 48.39453125 C-15.01426057 48.79052408 -20.72880072 47.370022 -27.3125 41.9375 C-32.88366026 36.36633974 -34.51224642 30.81482783 -34.8125 23.125 C-34.61719769 15.467522 -32.97854107 9.48528168 -27.375 4.0625 C-19.06986609 -2.48093884 -9.88198716 -4.53795181 0 0 Z " fill="none" transform="translate(1030.3125,1303.0625)"/>
<path d="M0 0 C4.62 0 9.24 0 14 0 C18.66174628 10.99693994 22.98463651 22.11846215 27.3125 33.25 C28.06041784 35.17062317 28.80846371 37.09119649 29.55664062 39.01171875 C31.37256987 43.67390592 33.18676698 48.33676358 35 53 C37.36626876 46.73784556 39.73238154 40.4756322 42.09838867 34.21337891 C42.90238966 32.08543582 43.70642564 29.95750595 44.51049805 27.82958984 C45.66985242 24.76142848 46.8290787 21.69321873 47.98828125 18.625 C48.34465164 17.68197021 48.70102203 16.73894043 49.06819153 15.76733398 C51.05270046 10.51424804 53.03064862 5.25878781 55 0 C59.62 0 64.24 0 69 0 C68.25902409 3.70487954 67.50335865 6.56771543 66.14575195 10.01123047 C65.76477859 10.98349579 65.38380524 11.95576111 64.99128723 12.95748901 C64.57779526 14.00018951 64.16430328 15.04289001 63.73828125 16.1171875 C63.31000534 17.20653595 62.88172943 18.2958844 62.44047546 19.41824341 C61.06838003 22.90537823 59.69048006 26.39018695 58.3125 29.875 C57.40392406 32.18214488 56.49571706 34.48943509 55.58789062 36.796875 C53.44341664 42.2439688 51.29181568 47.6882011 49.13580322 53.1307373 C48.10544004 55.73363768 47.07841589 58.33782729 46.05224609 60.94238281 C45.50768824 62.31843904 44.96294788 63.69442306 44.41796875 65.0703125 C43.96574951 66.21516113 43.51353027 67.36000977 43.04760742 68.53955078 C42 71 42 71 41 72 C38.81360547 72.07258946 36.62499611 72.08373783 34.4375 72.0625 C32.64119141 72.04896484 32.64119141 72.04896484 30.80859375 72.03515625 C29.41833984 72.01775391 29.41833984 72.01775391 28 72 C25.08573405 65.6043012 22.42571235 59.13724617 19.8828125 52.5859375 C19.50317352 51.61322906 19.12353455 50.64052063 18.73239136 49.63833618 C17.52794099 46.55132757 16.32632606 43.46322562 15.125 40.375 C13.93343455 37.31643888 12.74125309 34.25811932 11.54852295 31.20001221 C10.77712408 29.22201773 10.00632228 27.24379029 9.23614502 25.26531982 C7.54351243 20.92335731 5.84123385 16.58642229 4.09277344 12.26660156 C3.80868622 11.56443512 3.524599 10.86226868 3.23190308 10.13882446 C2.48871499 8.30936663 1.74042587 6.48198326 0.99169922 4.65478516 C0 2 0 2 0 0 Z " fill="#F5F1E8" transform="translate(1377,1290)"/>
<path d="M0 0 C18.15 0 36.3 0 55 0 C55 3.96 55 7.92 55 12 C48.07 12 41.14 12 34 12 C34 31.8 34 51.6 34 72 C29.71 72 25.42 72 21 72 C21 52.2 21 32.4 21 12 C14.07 12 7.14 12 0 12 C0 8.04 0 4.08 0 0 Z " fill="#F5F1E8" transform="translate(1188,1290)"/>
<path d="M0 0 C17.82 0 35.64 0 54 0 C54 3.96 54 7.92 54 12 C47.07 12 40.14 12 33 12 C33 31.8 33 51.6 33 72 C28.71 72 24.42 72 20 72 C20 52.2 20 32.4 20 12 C13.4 12 6.8 12 0 12 C0 8.04 0 4.08 0 0 Z " fill="#F5F1E8" transform="translate(1604,1290)"/>
<path d="M0 0 C3.00950808 2.16032408 4.25882952 3.80836262 5.73046875 7.2421875 C6.79474937 14.34752765 6.18583814 20.22713469 2.296875 26.33203125 C-0.86979785 30.1936348 -4.5051698 32.65406702 -9.26953125 34.2421875 C-21.2451729 35.14965848 -21.2451729 35.14965848 -26.89453125 32.6171875 C-31.29524076 28.21647799 -33.50774174 25.17631462 -33.76953125 18.8671875 C-33.46657923 11.66474744 -31.21448306 6.78124719 -25.95703125 1.8671875 C-18.42108599 -4.02076973 -8.24799184 -4.77428669 0 0 Z " fill="#F5F1E8" transform="translate(1526.26953125,1435.7578125)"/>
<path d="M0 0 C3.60066615 2.74373905 5.57353932 5.11919227 6.35546875 9.6328125 C6.34714435 17.18304009 6.03783947 22.66871774 0.7890625 28.36328125 C-5.45914547 34.29907882 -11.44181508 34.86406594 -19.8125 34.75 C-24.75040396 34.18810058 -26.72202998 32.85218877 -30.2109375 29.36328125 C-33.66164303 24.05723063 -32.94051897 17.39890977 -32.2109375 11.36328125 C-30.14543943 5.65469997 -26.68544979 2.26738129 -21.4609375 -0.69921875 C-13.90925792 -3.96480992 -7.28163241 -3.76475889 0 0 Z " fill="#F5F1E8" transform="translate(552.2109375,1435.63671875)"/>
<path d="M0 0 C3.37483413 -0.08767555 6.74937215 -0.14061628 10.125 -0.1875 C11.55199219 -0.22520508 11.55199219 -0.22520508 13.0078125 -0.26367188 C18.44195799 -0.32027756 22.33222539 -0.12171297 27 3 C31.40934495 7.88603089 32.36115349 10.87868145 32.27734375 17.33203125 C31.68348569 23.0447785 29.2025435 26.77012596 25.25 30.8125 C17.8758843 35.7758471 11.66200356 36.42047803 3 36.1875 C2.03449219 36.17396484 1.06898438 36.16042969 0.07421875 36.14648438 C-2.28445425 36.11145458 -4.64191771 36.06234084 -7 36 C-5.85725886 27.89555952 -4.45587018 19.85395873 -2.9375 11.8125 C-2.7631543 10.87962158 -2.58880859 9.94674316 -2.40917969 8.9855957 C-2.24192383 8.10991943 -2.07466797 7.23424316 -1.90234375 6.33203125 C-1.67792603 5.15217651 -1.67792603 5.15217651 -1.44897461 3.94848633 C-1 2 -1 2 0 0 Z " fill="#F5F1E8" transform="translate(982,1434)"/>
<path d="M0 0 C3.72890255 -0.1164862 7.45733514 -0.18734576 11.1875 -0.25 C12.77014648 -0.30027344 12.77014648 -0.30027344 14.38476562 -0.3515625 C22.18641299 -0.450006 22.18641299 -0.450006 26.19921875 1.76953125 C28.37921378 4.46969863 28.70132321 6.5764027 28.5078125 10.02734375 C27.66770439 13.29084064 25.55478196 14.95617443 23 17 C23.680625 17.680625 24.36125 18.36125 25.0625 19.0625 C27 22 27 22 27 25.5 C25.90186706 29.34346528 24.89648526 31.26008151 22 34 C16.25255369 36.70083249 10.32930625 36.22433003 4.125 36.125 C3.05507813 36.11597656 1.98515625 36.10695313 0.8828125 36.09765625 C-1.74502439 36.07419342 -4.37239406 36.04136459 -7 36 C-6.03070188 27.46762575 -4.71022899 19.09033156 -2.9375 10.6875 C-2.7631543 9.85758545 -2.58880859 9.0276709 -2.40917969 8.17260742 C-1.1354612 2.27092241 -1.1354612 2.27092241 0 0 Z " fill="#F5F1E8" transform="translate(820,1434)"/>
<path d="M0 0 C4.29 0 8.58 0 13 0 C13 23.76 13 47.52 13 72 C8.71 72 4.42 72 0 72 C0 48.24 0 24.48 0 0 Z " fill="#F5F1E8" transform="translate(658,1290)"/>
<path d="M0 0 C4.29 0 8.58 0 13 0 C13 23.76 13 47.52 13 72 C8.71 72 4.42 72 0 72 C0 48.24 0 24.48 0 0 Z " fill="#F5F1E8" transform="translate(284,1290)"/>
<path d="M0 0 C56.1 0 112.2 0 170 0 C170 1.65 170 3.3 170 5 C113.9 5 57.8 5 0 5 C0 3.35 0 1.7 0 0 Z " fill="#F5F1E8" transform="translate(192,1446)"/>
<path d="M0 0 C1.98 0 3.96 0 6 0 C7.68640693 8.62938016 8.89392144 17.28080623 10 26 C10.51949219 24.96101563 11.03898438 23.92203125 11.57421875 22.8515625 C15.3828125 15.234375 19.19140625 7.6171875 23 0 C25.31 0 27.62 0 30 0 C33.44419134 17.85649203 33.44419134 17.85649203 33 26 C33.66 26 34.32 26 35 26 C35.21398437 25.22398438 35.42796875 24.44796875 35.6484375 23.6484375 C37.48648174 18.6867805 40.03675465 14.2299746 42.625 9.625 C43.3984375 8.23474609 43.3984375 8.23474609 44.1875 6.81640625 C45.45382811 4.54170575 46.72475925 2.26971208 48 0 C49.98 0 51.96 0 54 0 C53.40945867 3.791986 52.31313634 6.6363546 50.453125 9.984375 C49.6796875 11.38816406 49.6796875 11.38816406 48.890625 12.8203125 C48.07851563 14.27050781 48.07851563 14.27050781 47.25 15.75 C46.7240625 16.70132812 46.198125 17.65265625 45.65625 18.6328125 C44.11067842 21.42555322 42.55622233 24.21318337 41 27 C40.03603374 28.73413905 39.0724553 30.46849377 38.109375 32.203125 C37.40625 33.46875 36.703125 34.734375 36 36 C33.69 36 31.38 36 29 36 C26.84373621 28.45307674 25.95094613 20.76943218 25 13 C21.13391439 17.35377989 18.76652406 22.11960751 16.25 27.3125 C15.83878906 28.14845703 15.42757812 28.98441406 15.00390625 29.84570312 C13.99706727 31.89450337 12.99596665 33.94589848 12 36 C9.36 36 6.72 36 4 36 C3.32051492 31.87700739 2.65879088 27.75134559 2 23.625 C1.80921875 22.46871094 1.6184375 21.31242187 1.421875 20.12109375 C0.35052298 13.34861849 -0.282195 6.85694663 0 0 Z " fill="#F5F1E8" transform="translate(566,1434)"/>
<path d="M0 0 C3.20815845 -0.08774066 6.41600462 -0.14063706 9.625 -0.1875 C10.52863281 -0.21263672 11.43226562 -0.23777344 12.36328125 -0.26367188 C17.66482254 -0.32171795 21.45985656 -0.07211599 26 3 C28.71155003 7.06732504 28.63334807 10.22613895 28 15 C27.02074386 17.95446028 25.97404739 19.45451783 24 22 C20.75 23.4375 20.75 23.4375 18 24 C18.433125 24.69867187 18.86625 25.39734375 19.3125 26.1171875 C19.869375 27.02726562 20.42625 27.93734375 21 28.875 C21.556875 29.77992187 22.11375 30.68484375 22.6875 31.6171875 C24 34 24 34 24 36 C20.875 36.625 20.875 36.625 17 36 C15.515625 33.80859375 15.515625 33.80859375 14.125 31.0625 C12.21964016 27.16935799 12.21964016 27.16935799 8.625 25.11328125 C5.85865045 24.79706068 5.85865045 24.79706068 2 25 C1.67 28.63 1.34 32.26 1 36 C-1.31 36 -3.62 36 -6 36 C-5.45548361 27.77852571 -4.12288195 19.87117503 -2.4375 11.8125 C-2.20353516 10.66974609 -1.96957031 9.52699219 -1.72851562 8.34960938 C-1.15766629 5.56526262 -0.58141765 2.78215551 0 0 Z " fill="#F5F1E8" transform="translate(1460,1434)"/>
<path d="M0 0 C1.98 0 3.96 0 6 0 C7.81225417 8.74456622 9.18268205 17.04857942 9 26 C9.66 26 10.32 26 11 26 C11.22429687 25.22398438 11.44859375 24.44796875 11.6796875 23.6484375 C13.445641 18.76855416 15.77233059 14.24466738 18.125 9.625 C18.59292969 8.69816406 19.06085938 7.77132813 19.54296875 6.81640625 C20.69169056 4.54240594 21.84411881 2.27036718 23 0 C25.31 0 27.62 0 30 0 C31.76773893 9.07018429 33.44218238 17.71417006 33 27 C33.66 27 34.32 27 35 27 C35.10884521 26.28432861 35.21769043 25.56865723 35.32983398 24.83129883 C36.05932654 21.74935886 37.18647372 19.46434731 38.72265625 16.69921875 C39.26083984 15.72275391 39.79902344 14.74628906 40.35351562 13.74023438 C40.91748047 12.73283203 41.48144531 11.72542969 42.0625 10.6875 C42.63033203 9.66076172 43.19816406 8.63402344 43.78320312 7.57617188 C45.18284995 5.0473982 46.58860511 2.52222964 48 0 C50.31 0 52.62 0 55 0 C49.04589611 12.21529622 42.62131028 24.1343776 36 36 C33.69 36 31.38 36 29 36 C28.49317558 32.98017116 27.99436665 29.95937183 27.5 26.9375 C27.35691406 26.08994141 27.21382812 25.24238281 27.06640625 24.36914062 C26.27799579 19.50727611 25.83962926 14.92471814 26 10 C25.34 10 24.68 10 24 10 C23.88664307 10.72018311 23.77328613 11.44036621 23.65649414 12.18237305 C22.96463767 15.15177266 21.92928564 17.39685565 20.49609375 20.08203125 C20.00302734 21.01337891 19.50996094 21.94472656 19.00195312 22.90429688 C18.48568359 23.86400391 17.96941406 24.82371094 17.4375 25.8125 C16.91736328 26.79154297 16.39722656 27.77058594 15.86132812 28.77929688 C14.57990832 31.1893066 13.29265289 33.59600219 12 36 C9.36 36 6.72 36 4 36 C3.42410672 31.99899678 2.85468783 27.99712849 2.29101562 23.99438477 C2.0987434 22.63541375 1.90476437 21.276683 1.70898438 19.91821289 C1.42639779 17.95524539 1.15064275 15.99129834 0.875 14.02734375 C0.70742187 12.84906006 0.53984375 11.67077637 0.3671875 10.45678711 C-0.00596373 6.94385604 -0.06306863 3.52987232 0 0 Z " fill="#F5F1E8" transform="translate(1540,1434)"/>
<path d="M0 0 C3.3956697 -0.08745946 6.79104773 -0.14054444 10.1875 -0.1875 C11.14720703 -0.21263672 12.10691406 -0.23777344 13.09570312 -0.26367188 C22.09513128 -0.35709154 22.09513128 -0.35709154 26 3 C28.83880927 7.25821391 28.51165313 11.00338745 28 16 C26.28803009 20.23487294 24.07677509 22.0138788 20 24 C19.34 24 18.68 24 18 24 C18.433125 24.69867187 18.86625 25.39734375 19.3125 26.1171875 C19.869375 27.02726562 20.42625 27.93734375 21 28.875 C21.556875 29.77992187 22.11375 30.68484375 22.6875 31.6171875 C24 34 24 34 24 36 C21.69 36 19.38 36 17 36 C16.16151196 34.54462432 15.32936066 33.08559627 14.5 31.625 C14.0359375 30.81289062 13.571875 30.00078125 13.09375 29.1640625 C12 27 12 27 12 25 C8.7 25 5.4 25 2 25 C1.67 28.63 1.34 32.26 1 36 C-1.31 36 -3.62 36 -6 36 C-5.45548361 27.77852571 -4.12288195 19.87117503 -2.4375 11.8125 C-2.20353516 10.66974609 -1.96957031 9.52699219 -1.72851562 8.34960938 C-1.15766629 5.56526262 -0.58141765 2.78215551 0 0 Z " fill="#F5F1E8" transform="translate(663,1434)"/>
<path d="M0 0 C3.06273831 -0.05410136 6.12451452 -0.09372225 9.1875 -0.125 C10.05181641 -0.14175781 10.91613281 -0.15851563 11.80664062 -0.17578125 C17.69163651 -0.220877 21.8583549 -0.0258805 26.3125 4.1875 C28.47872521 7.79787534 28.51047647 9.84326307 28 14 C26.26239929 18.66408612 24.13826829 21.24115447 20 24 C19.34 24 18.68 24 18 24 C18.3609375 24.69867187 18.721875 25.39734375 19.09375 26.1171875 C19.5578125 27.02726562 20.021875 27.93734375 20.5 28.875 C20.9640625 29.77992187 21.428125 30.68484375 21.90625 31.6171875 C23 34 23 34 23 36 C20.69 36 18.38 36 16 36 C14.35 32.7 12.7 29.4 11 26 C8.03 26 5.06 26 2 26 C1.34 29.3 0.68 32.6 0 36 C-2.31 36 -4.62 36 -7 36 C-5.68325559 27.69724667 -4.12102231 19.47254693 -2.375 11.25 C-2.03082031 9.61417969 -2.03082031 9.61417969 -1.6796875 7.9453125 C-1.12202086 5.29639595 -0.56210119 2.6479784 0 0 Z " fill="#F5F1E8" transform="translate(860,1434)"/>
<path d="M0 0 C3.04221065 -0.08132642 6.0822238 -0.14065374 9.125 -0.1875 C9.9809375 -0.21263672 10.836875 -0.23777344 11.71875 -0.26367188 C17.82377859 -0.33411451 22.23453528 0.41889959 26.875 4.75 C28.50918244 8.01836488 28.37371743 10.38739819 28 14 C26.01155883 19.33739473 23.09332352 22.45333824 18 25 C15.28737884 25.2322646 12.59226874 25.41936235 9.875 25.5625 C8.74384766 25.62727539 8.74384766 25.62727539 7.58984375 25.69335938 C5.72678112 25.7994832 3.86341476 25.90025001 2 26 C1.34 29.3 0.68 32.6 0 36 C-2.31 36 -4.62 36 -7 36 C-5.68325559 27.69724667 -4.12102231 19.47254693 -2.375 11.25 C-2.03082031 9.61417969 -2.03082031 9.61417969 -1.6796875 7.9453125 C-1.12202086 5.29639595 -0.56210119 2.6479784 0 0 Z " fill="#F5F1E8" transform="translate(487,1434)"/>
<path d="M0 0 C49.17 0 98.34 0 149 0 C149 1.65 149 3.3 149 5 C99.83 5 50.66 5 0 5 C0 3.35 0 1.7 0 0 Z " fill="#F5F1E8" transform="translate(1718,1446)"/>
<path d="M0 0 C1.98 0 3.96 0 6 0 C15 17.33606557 15 17.33606557 15 23 C18.74822927 19.40599126 21.94813409 15.64927885 25.0625 11.5 C26.70549552 9.33114528 28.3520538 7.16510655 30 5 C30.95712891 3.56140625 30.95712891 3.56140625 31.93359375 2.09375 C34 0 34 0 37.25 -0.3125 C38.1575 -0.209375 39.065 -0.10625 40 0 C35.84363246 24.77626887 35.84363246 24.77626887 33 36 C31.02 36 29.04 36 27 36 C27.75015582 28.62346781 28.83441535 21.32168224 30 14 C29.47043701 14.7113208 29.47043701 14.7113208 28.93017578 15.43701172 C27.33012824 17.58426394 25.72759558 19.72964893 24.125 21.875 C23.56941406 22.62136719 23.01382812 23.36773438 22.44140625 24.13671875 C21.63896484 25.20986328 21.63896484 25.20986328 20.8203125 26.3046875 C20.08192139 27.2944458 20.08192139 27.2944458 19.32861328 28.30419922 C18 30 18 30 16 32 C15.01 32 14.02 32 13 32 C11.8265684 29.39869373 10.66107492 26.79431492 9.5 24.1875 C9.16613281 23.44951172 8.83226562 22.71152344 8.48828125 21.95117188 C8.17246094 21.23896484 7.85664063 20.52675781 7.53125 19.79296875 C7.23798828 19.1383667 6.94472656 18.48376465 6.64257812 17.80932617 C6 16 6 16 6 13 C5.34 13 4.68 13 4 13 C3.96261719 13.57105469 3.92523438 14.14210938 3.88671875 14.73046875 C3.29680315 22.00609452 1.76303958 28.92566508 0 36 C-1.98 36 -3.96 36 -6 36 C-5.26962003 28.21767545 -3.89437197 20.61362375 -2.4375 12.9375 C-2.20353516 11.69033203 -1.96957031 10.44316406 -1.72851562 9.15820312 C-1.15529036 6.10490122 -0.57904744 3.05220213 0 0 Z " fill="#F5F1E8" transform="translate(436,1434)"/>
<path d="M0 0 C2.7878418 -0.30078125 2.7878418 -0.30078125 6 0 C7.85864258 2.01953125 7.85864258 2.01953125 9.39453125 4.8125 C9.95720703 5.80507812 10.51988281 6.79765625 11.09960938 7.8203125 C11.94749023 9.39425781 11.94749023 9.39425781 12.8125 11 C13.96234701 13.06389298 15.11455359 15.12647381 16.26953125 17.1875 C16.77073486 18.10917969 17.27193848 19.03085938 17.78833008 19.98046875 C18.18818115 20.64691406 18.58803223 21.31335937 19 22 C19.33 22 19.66 22 20 22 C20.11593506 21.36908447 20.23187012 20.73816895 20.35131836 20.08813477 C20.87600481 17.24549319 21.40667024 14.4040005 21.9375 11.5625 C22.11990234 10.56927734 22.30230469 9.57605469 22.49023438 8.55273438 C22.66748047 7.60849609 22.84472656 6.66425781 23.02734375 5.69140625 C23.18968506 4.81685791 23.35202637 3.94230957 23.51928711 3.04125977 C24 1 24 1 25 0 C26.99958364 -0.04080783 29.00045254 -0.04254356 31 0 C29.70831624 12.16902066 27.52607805 24.03178553 25 36 C22.25 36.36328125 22.25 36.36328125 19 36 C16.875 33.54296875 16.875 33.54296875 15 30.1875 C14.66677734 29.60524658 14.33355469 29.02299316 13.99023438 28.4230957 C12.9700817 26.62734416 11.98313443 24.81623228 11 23 C10.3915625 21.906875 9.783125 20.81375 9.15625 19.6875 C7.74832554 17.1372972 6.37084102 14.57032692 5 12 C3.35 19.92 1.7 27.84 0 36 C-2.31 36 -4.62 36 -7 36 C-6.33015012 28.13986276 -4.69766584 20.61933744 -2.9375 12.9375 C-2.65583984 11.69033203 -2.37417969 10.44316406 -2.08398438 9.15820312 C-1.39367318 6.10445361 -0.69891018 3.0517908 0 0 Z " fill="#F5F1E8" transform="translate(1320,1434)"/>
<path d="M0 0 C1.093125 0.0825 2.18625 0.165 3.3125 0.25 C4.43716949 4.41162106 5.55805251 8.5742384 6.67553711 12.73779297 C7.05569898 14.15213085 7.43686883 15.56619821 7.8190918 16.97998047 C8.37037302 19.01979289 8.91794375 21.06057165 9.46484375 23.1015625 C9.79476318 24.32697754 10.12468262 25.55239258 10.46459961 26.81494141 C11.23907913 29.9525535 11.83144316 33.05578258 12.3125 36.25 C10.0025 36.25 7.6925 36.25 5.3125 36.25 C3.95810332 33.54120665 4.24748549 31.24066732 4.3125 28.25 C1.22712971 28.21459264 -1.85254056 28.25653194 -4.9375 28.3125 C-6.24654297 28.29606445 -6.24654297 28.29606445 -7.58203125 28.27929688 C-10.13349261 28.34746569 -12.25226595 28.47561359 -14.6875 29.25 C-16.76516698 31.49179996 -17.51935183 33.35916141 -18.6875 36.25 C-21.3275 36.25 -23.9675 36.25 -26.6875 36.25 C-22.38869049 28.55903899 -17.73939113 21.13423553 -12.9375 13.75 C-12.37071533 12.87762695 -11.80393066 12.00525391 -11.2199707 11.10644531 C-8.14965738 6.40761041 -8.14965738 6.40761041 -6.6875 4.25 C-6.07213379 3.12561523 -6.07213379 3.12561523 -5.44433594 1.97851562 C-3.6875 0.25 -3.6875 0.25 0 0 Z " fill="#F5F1E8" transform="translate(1245.6875,1433.75)"/>
<path d="M0 0 C1.09699219 0.07347656 2.19398438 0.14695312 3.32421875 0.22265625 C12.32421875 31.29689206 12.32421875 31.29689206 12.32421875 36.22265625 C10.01421875 36.22265625 7.70421875 36.22265625 5.32421875 36.22265625 C4.99421875 33.58265625 4.66421875 30.94265625 4.32421875 28.22265625 C1.23598769 28.20162744 -1.83879653 28.22915145 -4.92578125 28.28515625 C-6.23482422 28.2687207 -6.23482422 28.2687207 -7.5703125 28.25195312 C-10.12177386 28.32012194 -12.2405472 28.44826984 -14.67578125 29.22265625 C-16.75344823 31.46445621 -17.50763308 33.33181766 -18.67578125 36.22265625 C-21.31578125 36.22265625 -23.95578125 36.22265625 -26.67578125 36.22265625 C-22.13194953 28.14306143 -17.24425673 20.39480085 -12.02734375 12.73828125 C-10.58199732 10.60986801 -9.25034764 8.49499152 -7.94921875 6.26953125 C-7.22605469 5.03976562 -7.22605469 5.03976562 -6.48828125 3.78515625 C-6.10285156 3.08519531 -5.71742188 2.38523437 -5.3203125 1.6640625 C-3.67578125 0.22265625 -3.67578125 0.22265625 0 0 Z " fill="#F5F1E8" transform="translate(913.67578125,1433.77734375)"/>
<path d="M0 0 C2.80151367 -0.26464844 2.80151367 -0.26464844 6 0 C7.7668457 1.77246094 7.7668457 1.77246094 9.17578125 4.234375 C9.69333984 5.11867188 10.21089844 6.00296875 10.74414062 6.9140625 C11.26169922 7.84992188 11.77925781 8.78578125 12.3125 9.75 C12.84939453 10.67039062 13.38628906 11.59078125 13.93945312 12.5390625 C18.17616524 19.91190326 18.17616524 19.91190326 19 24 C19.66 24 20.32 24 21 24 C21.03738281 23.35675781 21.07476563 22.71351562 21.11328125 22.05078125 C21.66353455 14.48749574 23.14346957 7.34438767 25 0 C26.98 0 28.96 0 31 0 C31.13108017 4.89092897 30.70744346 9.24635877 29.6875 14.02734375 C29.41679688 15.31318359 29.14609375 16.59902344 28.8671875 17.92382812 C28.57827851 19.26175191 28.2892141 20.59964214 28 21.9375 C27.71029149 23.30259743 27.42122307 24.66783088 27.1328125 26.03320312 C26.42815049 29.35685894 25.71702471 32.67899327 25 36 C22.21435547 36.29638672 22.21435547 36.29638672 19 36 C17.12548828 34.01220703 17.12548828 34.01220703 15.5703125 31.2578125 C15.003125 30.27425781 14.4359375 29.29070312 13.8515625 28.27734375 C13.28179688 27.23707031 12.71203125 26.19679688 12.125 25.125 C11.53203125 24.09246094 10.9390625 23.05992188 10.328125 21.99609375 C6 14.36702549 6 14.36702549 6 12 C5.34 12 4.68 12 4 12 C3.8453125 13.7634375 3.8453125 13.7634375 3.6875 15.5625 C2.93619525 22.45682595 1.42053432 29.21895881 0 36 C-1.98 36 -3.96 36 -6 36 C-6.13108017 31.10907103 -5.70744346 26.75364123 -4.6875 21.97265625 C-4.41679688 20.68681641 -4.14609375 19.40097656 -3.8671875 18.07617188 C-3.57827851 16.73824809 -3.2892141 15.40035786 -3 14.0625 C-2.71029149 12.69740257 -2.42122307 11.33216912 -2.1328125 9.96679688 C-1.42815049 6.64314106 -0.71702471 3.32100673 0 0 Z " fill="#F5F1E8" transform="translate(720,1434)"/>
<path d="M0 0 C2.80371094 -0.26464844 2.80371094 -0.26464844 6 0 C7.75097656 1.77246094 7.75097656 1.77246094 9.140625 4.234375 C9.65367187 5.11867188 10.16671875 6.00296875 10.6953125 6.9140625 C11.20835937 7.84992188 11.72140625 8.78578125 12.25 9.75 C12.77851562 10.67039062 13.30703125 11.59078125 13.8515625 12.5390625 C16.00816161 16.31584774 18.05452395 20.10904789 20 24 C21.65 16.08 23.3 8.16 25 0 C26.98 0 28.96 0 31 0 C31.13108017 4.89092897 30.70744346 9.24635877 29.6875 14.02734375 C29.41679688 15.31318359 29.14609375 16.59902344 28.8671875 17.92382812 C28.57827851 19.26175191 28.2892141 20.59964214 28 21.9375 C27.71029149 23.30259743 27.42122307 24.66783088 27.1328125 26.03320312 C26.42815049 29.35685894 25.71702471 32.67899327 25 36 C22.21435547 36.29638672 22.21435547 36.29638672 19 36 C17.12548828 34.01220703 17.12548828 34.01220703 15.5703125 31.2578125 C15.003125 30.27425781 14.4359375 29.29070312 13.8515625 28.27734375 C13.28179688 27.23707031 12.71203125 26.19679688 12.125 25.125 C11.53203125 24.09246094 10.9390625 23.05992188 10.328125 21.99609375 C6 14.36702549 6 14.36702549 6 12 C5.34 12 4.68 12 4 12 C3.96261719 12.55945312 3.92523437 13.11890625 3.88671875 13.6953125 C3.26439943 21.28516771 1.69875555 28.58530596 0 36 C-1.98 36 -3.96 36 -6 36 C-5.45548361 27.77852571 -4.12288195 19.87117503 -2.4375 11.8125 C-2.20353516 10.66974609 -1.96957031 9.52699219 -1.72851562 8.34960938 C-1.15766629 5.56526262 -0.58141765 2.78215551 0 0 Z " fill="#F5F1E8" transform="translate(939,1434)"/>
<path d="M0 0 C4.021875 -0.0928125 4.021875 -0.0928125 8.125 -0.1875 C8.95789551 -0.21481201 9.79079102 -0.24212402 10.64892578 -0.27026367 C15.50534688 -0.32414665 18.83050747 0.24714514 23 3 C25.820631 5.86833723 26.43135748 7.95100643 26.4375 11.9375 C26.32450863 15.42482447 26.06225628 16.88932218 24.3125 20 C19.30300499 24.33253622 14.49190706 24.26133107 8.1875 24.125 C4.1346875 24.063125 4.1346875 24.063125 0 24 C0 16.08 0 8.16 0 0 Z " fill="none" transform="translate(416,1302)"/>
<path d="M0 0 C3.01125 -0.0825 6.0225 -0.165 9.125 -0.25 C10.06230957 -0.28641602 10.99961914 -0.32283203 11.96533203 -0.36035156 C17.47922855 -0.43316553 20.67167183 0.25147903 25 4 C27.47862452 7.71793677 27.53102546 10.69279347 27 15 C25.64805213 18.37986968 24.52780769 19.6611605 21.46875 21.625 C17.02712883 23.38564263 13.34034789 23.33300364 8.625 23.1875 C4.355625 23.0946875 4.355625 23.0946875 0 23 C0 15.41 0 7.82 0 0 Z " fill="none" transform="translate(923,1302)"/>
<path d="M0 0 C2.31 0 4.62 0 7 0 C6.68917128 1.75029762 6.37626821 3.50022694 6.0625 5.25 C5.88847656 6.22453125 5.71445313 7.1990625 5.53515625 8.203125 C5.09864867 10.48443468 4.56333632 12.74665473 4 15 C10.27 15 16.54 15 23 15 C23 12.69 23 10.38 23 8 C23.49336792 5.25564097 24.24452346 2.69138519 25 0 C27.31 0 29.62 0 32 0 C29.85843093 12.0444855 27.68879009 24.06340157 25 36 C22.69 36 20.38 36 18 36 C18.99 30.72 19.98 25.44 21 20 C15.06 20 9.12 20 3 20 C2.690625 22.083125 2.38125 24.16625 2.0625 26.3125 C1.56113497 29.68835789 1.07957436 32.76127691 0 36 C-1.98 36 -3.96 36 -6 36 C-5.74017041 23.69352561 -2.77612844 11.93505797 0 0 Z " fill="#F5F1E8" transform="translate(1635,1434)"/>
<path d="M0 0 C2.45056568 1.71539597 3.92988486 3.22037006 5.5 5.75 C4.18 6.74 2.86 7.73 1.5 8.75 C0.901875 8.440625 0.30375 8.13125 -0.3125 7.8125 C-4.65644308 5.70258479 -8.72658389 5.09003906 -13.5 5.75 C-17.44638333 7.83488176 -20.16039073 9.95821946 -22.5 13.75 C-23.00933379 16.42545045 -23.00933379 16.42545045 -22.9375 19.25 C-22.95683594 20.1884375 -22.97617188 21.126875 -22.99609375 22.09375 C-22.34702223 25.56909357 -21.37510699 26.71604001 -18.5 28.75 C-15.45559865 29.23195275 -15.45559865 29.23195275 -12.25 29 C-10.63351562 28.94585938 -10.63351562 28.94585938 -8.984375 28.890625 C-8.16453125 28.84421875 -7.3446875 28.7978125 -6.5 28.75 C-5.51 25.12 -4.52 21.49 -3.5 17.75 C-1.52 17.75 0.46 17.75 2.5 17.75 C2.32531284 20.002862 2.10892178 22.25251621 1.875 24.5 C1.75898437 25.75296875 1.64296875 27.0059375 1.5234375 28.296875 C0.5 31.75 0.5 31.75 -2.1171875 34.171875 C-6.01688072 35.99113142 -8.7096728 36.28488071 -13 36.25 C-14.90265625 36.26546875 -14.90265625 36.26546875 -16.84375 36.28125 C-22.07081662 35.52176169 -26.13691836 32.82109883 -29.5 28.75 C-31.28065949 23.40802154 -31.5002261 17.03990031 -29.8515625 11.6171875 C-23.93279423 0.33611635 -11.88544215 -4.24480077 0 0 Z " fill="#F5F1E8" transform="translate(1444.5,1434.25)"/>
<path d="M0 0 C0 1.32 0 2.64 0 4 C-0.66 4.66 -1.32 5.32 -2 6 C-4.24665257 5.70044632 -5.81257787 5.11379201 -7.75 3.9375 C-11.15193568 2.5200268 -14.40974974 2.43275429 -18 3 C-21.94638333 5.08488176 -24.66039073 7.20821946 -27 11 C-27.50933379 13.67545045 -27.50933379 13.67545045 -27.4375 16.5 C-27.45683594 17.4384375 -27.47617188 18.376875 -27.49609375 19.34375 C-26.84702223 22.81909357 -25.87510699 23.96604001 -23 26 C-19.95559865 26.48195275 -19.95559865 26.48195275 -16.75 26.25 C-15.13351562 26.19585938 -15.13351562 26.19585938 -13.484375 26.140625 C-12.66453125 26.09421875 -11.8446875 26.0478125 -11 26 C-10.01 22.37 -9.02 18.74 -8 15 C-6.02 15 -4.04 15 -2 15 C-2.65907729 27.32474536 -2.65907729 27.32474536 -5.45703125 30.8203125 C-11.24647919 34.11115659 -18.58251313 33.80116397 -25 33 C-28.99654282 31.78395791 -31.35979863 29.82606629 -33.9375 26.5 C-35.81538522 20.31402517 -36.4984386 13.04897168 -33.4375 7.125 C-24.21937346 -4.69311095 -13.31466614 -7.20407057 0 0 Z " fill="#F5F1E8" transform="translate(1392,1437)"/>
<path d="M0 0 C2 2 2 2 2.24609566 4.91666603 C2.24333028 6.80541986 2.24333028 6.80541986 2.24050903 8.73233032 C2.24221788 9.43232663 2.24392673 10.13232293 2.24568737 10.85353124 C2.24899444 13.21056217 2.23795878 15.56731149 2.22705078 17.92431641 C2.22648693 19.60931898 2.22680272 21.29432205 2.22793579 22.97932434 C2.22851132 27.56381318 2.2167247 32.14819807 2.20278788 36.73266268 C2.19031381 41.51996113 2.18911265 46.30726178 2.18673706 51.09457397 C2.18051249 60.16455966 2.1640885 69.23449733 2.14403808 78.30446184 C2.11753706 90.5575023 2.10671433 102.81055583 2.09503365 115.06361771 C2.07620857 134.37578113 2.03636941 153.6878432 2 173 C-34.63 173 -71.26 173 -109 173 C-105.34572219 171.17286109 -104.31771764 170.75043608 -100.53277588 170.75949097 C-99.2020574 170.75535848 -99.2020574 170.75535848 -97.84445572 170.7511425 C-96.8751701 170.75833872 -95.90588448 170.76553493 -94.90722656 170.77294922 C-93.86596493 170.77270815 -92.82470329 170.77246708 -91.75188828 170.7722187 C-88.38138026 170.77371147 -85.01109344 170.78894275 -81.640625 170.8046875 C-79.55973416 170.80762804 -77.47884184 170.80966842 -75.39794922 170.81079102 C-67.68194359 170.82127703 -59.96596962 170.84919943 -52.25 170.875 C-35.0075 170.91625 -17.765 170.9575 0 171 C0 114.57 0 58.14 0 0 Z " fill="#F5F1E8" transform="translate(771,1008)"/>
<path d="M0 0 C1.88323108 0.94496648 3.7040701 2.01251048 5.5078125 3.1015625 C5.5078125 4.4215625 5.5078125 5.7415625 5.5078125 7.1015625 C3.8828125 8.2890625 3.8828125 8.2890625 1.5078125 9.1015625 C-0.4921875 8.1015625 -2.4921875 7.1015625 -4.4921875 6.1015625 C-8.93194394 5.31128585 -11.79865156 5.73516615 -15.8046875 7.8515625 C-19.07105204 10.58619327 -21.22384642 12.45767117 -21.92578125 16.7578125 C-21.92707031 17.69625 -21.92835938 18.6346875 -21.9296875 19.6015625 C-21.94902344 20.54 -21.96835937 21.4784375 -21.98828125 22.4453125 C-21.33920973 25.92065607 -20.36729449 27.06760251 -17.4921875 29.1015625 C-14.44778615 29.58351525 -14.44778615 29.58351525 -11.2421875 29.3515625 C-9.62570312 29.29742188 -9.62570312 29.29742188 -7.9765625 29.2421875 C-7.15671875 29.19578125 -6.336875 29.149375 -5.4921875 29.1015625 C-5.35941406 28.39128906 -5.22664062 27.68101563 -5.08984375 26.94921875 C-4.91324219 26.03011719 -4.73664062 25.11101562 -4.5546875 24.1640625 C-4.29365234 22.78927734 -4.29365234 22.78927734 -4.02734375 21.38671875 C-3.4921875 19.1015625 -3.4921875 19.1015625 -2.4921875 18.1015625 C-0.49260386 18.06075467 1.50826504 18.05901894 3.5078125 18.1015625 C3.30659299 20.37504267 3.07084415 22.64548689 2.8203125 24.9140625 C2.62888672 26.81091797 2.62888672 26.81091797 2.43359375 28.74609375 C1.5078125 32.1015625 1.5078125 32.1015625 -0.88671875 33.98828125 C-7.05971717 36.62591926 -12.84636283 36.68266293 -19.4921875 36.1015625 C-24.39717456 33.86419998 -27.2220665 30.99105389 -29.4921875 26.1015625 C-30.53194686 19.20222468 -30.18325305 13.49041146 -25.984375 7.78515625 C-19.14689865 0.07062141 -10.14459952 -3.65714403 0 0 Z " fill="#F5F1E8" transform="translate(786.4921875,1433.8984375)"/>
<path d="M0 0 C8.58 0 17.16 0 26 0 C26 1.65 26 3.3 26 5 C19.4 5 12.8 5 6 5 C5.67 8.3 5.34 11.6 5 15 C10.28 15 15.56 15 21 15 C21 16.65 21 18.3 21 20 C15.06 20 9.12 20 3 20 C2.67 23.3 2.34 26.6 2 30 C8.27 30 14.54 30 21 30 C21 31.98 21 33.96 21 36 C12.09 36 3.18 36 -6 36 C-4.64509476 23.80585283 -2.50335395 12.01609894 0 0 Z " fill="#F5F1E8" transform="translate(400,1434)"/>
<path d="M0 0 C8.58 0 17.16 0 26 0 C25.67 1.65 25.34 3.3 25 5 C18.4 5 11.8 5 5 5 C4.67 8.3 4.34 11.6 4 15 C9.28 15 14.56 15 20 15 C20 16.65 20 18.3 20 20 C14.06 20 8.12 20 2 20 C1.67 23.3 1.34 26.6 1 30 C7.6 30 14.2 30 21 30 C20.67 31.98 20.34 33.96 20 36 C11.09 36 2.18 36 -7 36 C-6.41572129 30.74149163 -5.8709623 25.84909811 -4.84375 20.72265625 C-4.62589844 19.63275391 -4.40804688 18.54285156 -4.18359375 17.41992188 C-3.95800781 16.31197266 -3.73242188 15.20402344 -3.5 14.0625 C-3.27441406 12.92748047 -3.04882812 11.79246094 -2.81640625 10.62304688 C-1.13139205 2.26278409 -1.13139205 2.26278409 0 0 Z " fill="#F5F1E8" transform="translate(1159,1434)"/>
<path d="M0 0 C2.866875 -0.061875 5.73375 -0.12375 8.6875 -0.1875 C10.02880981 -0.22846802 10.02880981 -0.22846802 11.3972168 -0.27026367 C17.18781723 -0.33065684 20.48510021 0.65854158 24.8125 4.6875 C26.57024524 8.11047756 26.77701454 11.29314166 26 15 C23.99788746 18.49794376 21.34830424 20.76779717 18 23 C16.00708008 23.22705078 16.00708008 23.22705078 13.76953125 23.1953125 C13.04612549 23.19031738 12.32271973 23.18532227 11.57739258 23.18017578 C10.66497803 23.16196777 9.75256348 23.14375977 8.8125 23.125 C5.904375 23.08375 2.99625 23.0425 0 23 C0 15.41 0 7.82 0 0 Z " fill="none" transform="translate(1764,1302)"/>
<path d="M0 0 C8.25 0 16.5 0 25 0 C25 1.65 25 3.3 25 5 C18.4 5 11.8 5 5 5 C4.67 8.3 4.34 11.6 4 15 C9.28 15 14.56 15 20 15 C20 16.65 20 18.3 20 20 C14.06 20 8.12 20 2 20 C1.67 23.3 1.34 26.6 1 30 C7.27 30 13.54 30 20 30 C20 31.98 20 33.96 20 36 C11.09 36 2.18 36 -7 36 C-6.41572129 30.74149163 -5.8709623 25.84909811 -4.84375 20.72265625 C-4.62589844 19.63275391 -4.40804688 18.54285156 -4.18359375 17.41992188 C-3.95800781 16.31197266 -3.73242188 15.20402344 -3.5 14.0625 C-3.27441406 12.92748047 -3.04882812 11.79246094 -2.81640625 10.62304688 C-1.13139205 2.26278409 -1.13139205 2.26278409 0 0 Z " fill="#F5F1E8" transform="translate(1091,1434)"/>
<path d="M0 0 C8.25 0 16.5 0 25 0 C25 1.65 25 3.3 25 5 C18.4 5 11.8 5 5 5 C4.67 8.3 4.34 11.6 4 15 C9.28 15 14.56 15 20 15 C20 16.65 20 18.3 20 20 C14.06 20 8.12 20 2 20 C1.67 23.3 1.34 26.6 1 30 C7.27 30 13.54 30 20 30 C20 31.98 20 33.96 20 36 C11.09 36 2.18 36 -7 36 C-6.41572129 30.74149163 -5.8709623 25.84909811 -4.84375 20.72265625 C-4.62589844 19.63275391 -4.40804687 18.54285156 -4.18359375 17.41992188 C-3.95800781 16.31197266 -3.73242188 15.20402344 -3.5 14.0625 C-3.27441406 12.92748047 -3.04882812 11.79246094 -2.81640625 10.62304688 C-1.13139205 2.26278409 -1.13139205 2.26278409 0 0 Z " fill="#F5F1E8" transform="translate(628,1434)"/>
<path d="M0 0 C2.86516098 1.86568622 3.51160479 2.64227695 4.6875 5.75 C4.92437355 12.05534842 3.28578942 16.71866234 -0.8125 21.5 C-4.43741398 24.52076165 -9.15273744 24.20579518 -13.63671875 24.15234375 C-16.48660722 23.72382037 -17.55098629 23.32258231 -19.5 21.25 C-21.59667066 17.20125666 -22.33541674 14.16339077 -21.3125 9.75 C-19.47067803 5.38737933 -17.33373839 2.46042671 -13.4375 -0.25 C-8.47082295 -1.83933666 -4.88937284 -1.84504636 0 0 Z " fill="none" transform="translate(547.3125,1440.25)"/>
<path d="M0 0 C2.91927604 1.3961755 4.72202996 2.72202996 7 5 C7.80656926 10.82405857 7.48333785 16.12332701 4 21 C0.30582943 24.50946204 -2.6681268 25.30172507 -7.625 25.5 C-11.26574257 25.37138681 -12.61120463 25.27771098 -15.625 23.125 C-18.44504593 18.7667472 -18.61277818 15.11799239 -18 10 C-14.08379352 2.01696372 -8.56717357 -0.95190817 0 0 Z " fill="none" transform="translate(1518,1439)"/>
<path d="M0 0 C-0.66 1.65 -1.32 3.3 -2 5 C-2.61875 4.835 -3.2375 4.67 -3.875 4.5 C-9.51718237 3.59725082 -15.13201162 2.75467441 -20 6 C-20.00261339 8.43481756 -20.00261339 8.43481756 -19 11 C-16.12089369 12.59846445 -16.12089369 12.59846445 -12.625 13.625 C-5.03615191 16.13218041 -5.03615191 16.13218041 -3 19 C-2.58529584 22.73233742 -2.69922313 25.26476765 -4.125 28.75 C-7.22848625 32.4741835 -10.66112318 33.844812 -15.4375 34.3984375 C-16.613125 34.39070313 -17.78875 34.38296875 -19 34.375 C-20.175625 34.38273437 -21.35125 34.39046875 -22.5625 34.3984375 C-26.29690722 33.96558575 -28.7629657 32.86524232 -32 31 C-31.01 28.03 -31.01 28.03 -30 25 C-29.401875 25.309375 -28.80375 25.61875 -28.1875 25.9375 C-24.85251827 27.55734827 -22.1686653 28.15692779 -18.5 28.1875 C-17.33984375 28.20876953 -17.33984375 28.20876953 -16.15625 28.23046875 C-13.70319944 28.13661528 -13.70319944 28.13661528 -11 26 C-10.9922307 23.56475038 -10.9922307 23.56475038 -12 21 C-14.91422937 19.40277487 -14.91422937 19.40277487 -18.4375 18.375 C-24.80533458 16.29199813 -24.80533458 16.29199813 -27 13 C-27.54553487 9.93351979 -27.52857517 7.06897215 -27 4 C-20.23375527 -5.08610006 -9.35694865 -4.88188625 0 0 Z " fill="#F5F1E8" transform="translate(1049,1436)"/>
<path d="M0 0 C4.67631211 0.04251193 7.87534714 0.52427879 11.8125 3.25 C14.66448184 7.52797276 14.79616501 11.23552724 13.8125 16.25 C11.64716046 19.89251637 9.04223174 23.37540695 5 24.9609375 C2.00553707 25.35663439 -0.91822454 25.34269275 -3.9375 25.3125 C-5.10796875 25.30347656 -6.2784375 25.29445313 -7.484375 25.28515625 C-8.37640625 25.27355469 -9.2684375 25.26195312 -10.1875 25.25 C-9.68388177 19.50875219 -8.80515007 13.90284662 -7.6875 8.25 C-7.55690186 7.5789624 -7.42630371 6.9079248 -7.29174805 6.21655273 C-6.13244731 0.49053219 -5.80146782 0.0939509 0 0 Z " fill="none" transform="translate(993.1875,1438.75)"/>
<path d="M0 0 C1.98 0 3.96 0 6 0 C9.08718243 8.48975169 11.01048222 17.20370565 13 26 C13.40839111 25.35450195 13.81678223 24.70900391 14.23754883 24.04394531 C16.09415647 21.11154386 17.95330007 18.18075851 19.8125 15.25 C20.77639648 13.72632813 20.77639648 13.72632813 21.75976562 12.171875 C22.38173828 11.1921875 23.00371094 10.2125 23.64453125 9.203125 C24.21534424 8.30239258 24.78615723 7.40166016 25.37426758 6.47363281 C25.91075928 5.65733398 26.44725098 4.84103516 27 4 C27.48815186 3.2378418 27.97630371 2.47568359 28.47924805 1.69042969 C30 0 30 0 33.6875 -0.25 C34.780625 -0.1675 35.87375 -0.085 37 0 C32.98070112 7.57098189 28.40340861 14.74396636 23.75 21.9375 C22.30590713 24.17489389 20.86371089 26.41349302 19.421875 28.65234375 C18.47199707 30.12175415 18.47199707 30.12175415 17.50292969 31.62084961 C16.01071394 33.89557553 16.01071394 33.89557553 15 36 C12.69 36 10.38 36 8 36 C0.48666544 9.89553062 0.48666544 9.89553062 0 0 Z " fill="#F5F1E8" transform="translate(1190,1434)"/>
<path d="M0 0 C10.23 0 20.46 0 31 0 C30.67 1.65 30.34 3.3 30 5 C26.04 5 22.08 5 18 5 C17.731875 6.794375 17.46375 8.58875 17.1875 10.4375 C16.32108736 16.05061615 15.40341623 21.653141 14.4375 27.25 C14.31076904 28.00079834 14.18403809 28.75159668 14.0534668 29.52514648 C13.11662751 34.88337249 13.11662751 34.88337249 12 36 C10.00041636 36.04080783 7.99954746 36.04254356 6 36 C6.4593946 25.7784702 8.78289017 15.95121391 11 6 C7.37 6 3.74 6 0 6 C0 4.02 0 2.04 0 0 Z " fill="#F5F1E8" transform="translate(1264,1434)"/>
<path d="M0 0 C9.9 0 19.8 0 30 0 C30 1.65 30 3.3 30 5 C24.06 5.495 24.06 5.495 18 6 C16.02 15.9 14.04 25.8 12 36 C9.69 36 7.38 36 5 36 C6.05597342 28.74484147 7.22806473 21.52123563 8.5625 14.3125 C8.68923096 13.61769531 8.81596191 12.92289063 8.9465332 12.20703125 C9.87951849 7.24096301 9.87951849 7.24096301 11 5 C7.04 5 3.08 5 -1 5 C-0.67 3.35 -0.34 1.7 0 0 Z " fill="#F5F1E8" transform="translate(1598,1434)"/>
<path d="M0 0 C2.31 0 4.62 0 7 0 C6.25826663 6.55848454 5.14229492 13.0119878 3.9375 19.5 C3.75123047 20.51320313 3.56496094 21.52640625 3.37304688 22.5703125 C2.91738432 25.04724741 2.45897375 27.52367652 2 30 C7.94 30 13.88 30 20 30 C19.67 31.98 19.34 33.96 19 36 C10.75 36 2.5 36 -6 36 C-4.875 24.75 -4.875 24.75 -3.80859375 19.3359375 C-3.58623047 18.19511719 -3.36386719 17.05429688 -3.13476562 15.87890625 C-2.90466797 14.72261719 -2.67457031 13.56632812 -2.4375 12.375 C-2.08655273 10.58255859 -2.08655273 10.58255859 -1.72851562 8.75390625 C-1.15643102 5.83510725 -0.58017925 2.9171988 0 0 Z " fill="#F5F1E8" transform="translate(1126,1434)"/>
<path d="M0 0 C0.66 0 1.32 0 2 0 C3.42627939 3.68366998 4.8503884 7.36817065 6.27246094 11.0534668 C6.75688538 12.30793105 7.24191004 13.56216368 7.72753906 14.81616211 C8.42409214 16.61511705 9.11833262 18.41496689 9.8125 20.21484375 C10.23144531 21.29886475 10.65039062 22.38288574 11.08203125 23.49975586 C12 26 12 26 12 27 C4.74 27 -2.52 27 -10 27 C-6.625 16.875 -6.625 16.875 -5.17578125 13.18359375 C-4.86962891 12.40048828 -4.56347656 11.61738281 -4.24804688 10.81054688 C-3.93931641 10.02744141 -3.63058594 9.24433594 -3.3125 8.4375 C-2.83200195 7.21063477 -2.83200195 7.21063477 -2.34179688 5.95898438 C-1.56321746 3.97186378 -0.78190155 1.98581573 0 0 Z " fill="none" transform="translate(504,1307)"/>
<path d="M0 0 C2.31 0 4.62 0 7 0 C2.84363246 24.77626887 2.84363246 24.77626887 0 36 C-1.98 36 -3.96 36 -6 36 C-5.45548361 27.77852571 -4.12288195 19.87117503 -2.4375 11.8125 C-2.20353516 10.66974609 -1.96957031 9.52699219 -1.72851562 8.34960938 C-1.15766629 5.56526262 -0.58141765 2.78215551 0 0 Z " fill="#F5F1E8" transform="translate(702,1434)"/>
<path d="M0 0 C1.98 0 3.96 0 6 0 C6.13108017 4.89092897 5.70744346 9.24635877 4.6875 14.02734375 C4.41679688 15.31318359 4.14609375 16.59902344 3.8671875 17.92382812 C3.57827851 19.26175191 3.2892141 20.59964214 3 21.9375 C2.71029149 23.30259743 2.42122307 24.66783088 2.1328125 26.03320312 C1.42815049 29.35685894 0.71702471 32.67899327 0 36 C-2.31 36 -4.62 36 -7 36 C-6.21106334 31.686996 -5.41835444 27.37469337 -4.625 23.0625 C-4.40328125 21.85013672 -4.1815625 20.63777344 -3.953125 19.38867188 C-2.75615863 12.89336907 -1.48566814 6.43558116 0 0 Z " fill="#F5F1E8" transform="translate(1302,1434)"/>
<path d="M0 0 C1.58294782 -0.05437607 3.16644256 -0.09296271 4.75 -0.125 C5.63171875 -0.14820313 6.5134375 -0.17140625 7.421875 -0.1953125 C10.17606888 0.01333855 11.73321757 0.43265269 14 2 C15 5.3125 15 5.3125 15 9 C12.91374661 12.42741629 11.8255689 13.72481037 8 15 C6.10529184 15.0685495 4.2083166 15.08480372 2.3125 15.0625 C1.31863281 15.05347656 0.32476562 15.04445313 -0.69921875 15.03515625 C-1.83810547 15.01775391 -1.83810547 15.01775391 -3 15 C-2.5547115 9.72684667 -1.91626837 4.98229776 0 0 Z " fill="none" transform="translate(493,1439)"/>
<path d="M0 0 C4.58289598 -0.24026833 8.72206312 -0.4089398 13.125 1 C15 3 15 3 15.6875 6.9375 C15.44019403 10.29467856 15.09559142 10.89665792 12.6875 13.5 C7.70556203 15.52655104 3.30671472 15.3399319 -2 15 C-1.03644647 4.44191344 -1.03644647 4.44191344 0 0 Z " fill="none" transform="translate(1466,1439)"/>
<path d="M0 0 C12.625 -0.25 12.625 -0.25 16 2 C16.51813369 5.9970313 16.67446308 8.11622079 14.1875 11.375 C9.25223989 15.04119322 3.89313581 14.06933101 -2 14 C-1.34 9.38 -0.68 4.76 0 0 Z " fill="none" transform="translate(865,1440)"/>
<path d="M0 0 C2.12472576 -0.05386629 4.24983652 -0.09273071 6.375 -0.125 C7.55835938 -0.14820313 8.74171875 -0.17140625 9.9609375 -0.1953125 C13 0 13 0 15 2 C15.54814521 6.15024234 15.40790619 8.31530032 13.25 11.9375 C8.35168217 15.04604785 3.64980028 14.40548806 -2 14 C-1.85866501 12.22880197 -1.71176792 10.45804713 -1.5625 8.6875 C-1.48128906 7.70136719 -1.40007813 6.71523437 -1.31640625 5.69921875 C-1 3 -1 3 0 0 Z " fill="none" transform="translate(669,1440)"/>
<path d="M0 0 C0.66 0 1.32 0 2 0 C2 23.43 2 46.86 2 71 C5.63 71 9.26 71 13 71 C13 63.41 13 55.82 13 48 C13.33 48 13.66 48 14 48 C14 56.25 14 64.5 14 73 C9.38 73 4.76 73 0 73 C0 48.91 0 24.82 0 0 Z " fill="#F5F1E8" transform="translate(909,1290)"/>
<path d="M0 0 C0.33 0 0.66 0 1 0 C0.53853958 11.06413688 -1.7627138 21.72721183 -3.96484375 32.54296875 C-4.36275184 34.52196612 -4.76008566 36.50107904 -5.15687561 38.4803009 C-6.19728346 43.66141776 -7.24592005 48.84083592 -8.29620361 54.0199585 C-9.15035038 58.23882732 -9.99874842 62.4588422 -10.84682369 66.67893505 C-12.60407026 75.42281979 -14.36510986 84.1659462 -16.13647461 92.90698242 C-16.37580215 94.09251709 -16.37580215 94.09251709 -16.6199646 95.30200195 C-17.68536139 100.54884498 -18.82191034 105.77733167 -20 111 C-20.66 111 -21.32 111 -22 111 C-25.125 104.375 -25.125 104.375 -24 101 C-23.34 102.32 -22.68 103.64 -22 105 C-20.42230561 101.37292509 -19.50132401 97.95423156 -18.81640625 94.0625 C-18.50799805 92.34740234 -18.50799805 92.34740234 -18.19335938 90.59765625 C-17.98517578 89.41042969 -17.77699219 88.22320313 -17.5625 87 C-16.13203444 78.90455766 -14.55415757 70.89067067 -12.6628418 62.88964844 C-11.84244721 59.31315106 -11.21458582 55.74674144 -10.625 52.125 C-9.29713207 44.23023825 -7.58761262 36.43891379 -5.84521484 28.62670898 C-4.2945887 21.58521543 -2.99268926 14.53313249 -1.90039062 7.40649414 C-1.09218193 2.18436386 -1.09218193 2.18436386 0 0 Z " fill="#2FBF8F" transform="translate(1830,603)"/>
<path d="M0 0 C2.4377963 -0.05397335 4.87439685 -0.09365616 7.3125 -0.125 C8.00279297 -0.14175781 8.69308594 -0.15851563 9.40429688 -0.17578125 C13.17135396 -0.21217794 14.78431704 -0.14378864 18 2 C18.375 4.4375 18.375 4.4375 18 7 C16.12139167 9.5048111 15.03898126 9.98700625 12 11 C9.60509014 11.06970052 7.20832309 11.08448003 4.8125 11.0625 C3.54019531 11.05347656 2.26789062 11.04445313 0.95703125 11.03515625 C-0.50669922 11.01775391 -0.50669922 11.01775391 -2 11 C-1.34 7.37 -0.68 3.74 0 0 Z " fill="none" transform="translate(822,1454)"/>
<path d="M0 0 C2.9132609 2.74268233 5.08887083 5.46091764 7.1796875 8.8671875 C7.77193115 9.82455811 8.3641748 10.78192871 8.97436523 11.76831055 C9.60157471 12.79351807 10.22878418 13.81872559 10.875 14.875 C12.2165976 17.04609859 13.55906565 19.2166595 14.90234375 21.38671875 C15.58280762 22.48806152 16.26327148 23.5894043 16.96435547 24.72412109 C20.08037769 29.73860733 23.25716791 34.71364638 26.4375 39.6875 C30.77068124 46.47489357 35.05116573 53.28725474 39.25390625 60.15625 C41.10951922 63.17836688 42.98433722 66.18718443 44.875 69.1875 C45.42929688 70.06792969 45.98359375 70.94835938 46.5546875 71.85546875 C47.95868122 74.08613729 47.95868122 74.08613729 50 76 C50.69867187 74.92878906 51.39734375 73.85757812 52.1171875 72.75390625 C53.03621435 71.35661033 53.95549853 69.95948364 54.875 68.5625 C55.33519531 67.85544922 55.79539062 67.14839844 56.26953125 66.41992188 C56.93662109 65.40961914 56.93662109 65.40961914 57.6171875 64.37890625 C58.02565918 63.7557251 58.43413086 63.13254395 58.85498047 62.49047852 C60 61 60 61 62 60 C60.35554633 64.60268282 58.00052105 68.63830751 55.5 72.8125 C55.09652344 73.50537109 54.69304687 74.19824219 54.27734375 74.91210938 C53.24318829 76.64423445 52.12775368 78.32730564 51 80 C50.34 80 49.68 80 49 80 C47.58642578 78.09838867 47.58642578 78.09838867 45.9453125 75.41796875 C45.0322937 73.94009888 45.0322937 73.94009888 44.10083008 72.43237305 C43.44880615 71.36156494 42.79678223 70.29075684 42.125 69.1875 C40.75692641 66.96849348 39.38843201 64.74974634 38.01953125 62.53125 C37.33842285 61.42265625 36.65731445 60.3140625 35.95556641 59.171875 C33.27415593 54.82270086 30.54834416 50.50256381 27.8125 46.1875 C26.84237641 44.65369106 25.87232404 43.11983707 24.90234375 41.5859375 C23.93489902 40.05728965 22.96745106 38.52864384 22 37 C18.48190588 31.43844844 14.96762806 25.87451985 11.45800781 20.30761719 C9.98452009 17.97549965 8.50434124 15.64772623 7.0234375 13.3203125 C6.09880611 11.85947134 5.17432008 10.39853816 4.25 8.9375 C3.81929199 8.26436768 3.38858398 7.59123535 2.94482422 6.89770508 C0 2.22683586 0 2.22683586 0 0 Z " fill="#FF6B4A" transform="translate(1389,1147)"/>
<path d="M0 0 C2.29141286 -0.05384521 4.58318188 -0.09272087 6.875 -0.125 C8.78925781 -0.15980469 8.78925781 -0.15980469 10.7421875 -0.1953125 C14 0 14 0 16 2 C16.375 4.4375 16.375 4.4375 16 7 C13.59093953 9.47956955 12.24309487 9.97798054 8.765625 10.29296875 C7.60546875 10.25816406 6.4453125 10.22335937 5.25 10.1875 C4.07953125 10.16042969 2.9090625 10.13335938 1.703125 10.10546875 C0.81109375 10.07066406 -0.0809375 10.03585937 -1 10 C-0.67 6.7 -0.34 3.4 0 0 Z " fill="none" transform="translate(825,1439)"/>
<path d="M0 0 C-3.29708198 1.82207162 -6.47447611 3.18876269 -10.09375 4.171875 C-17.45440161 6.33704932 -24.55617807 9.19480615 -31.69580078 11.98803711 C-34.12441753 12.93727234 -36.5561425 13.87819049 -38.98828125 14.81835938 C-40.55748449 15.42919238 -42.1265014 16.04050432 -43.6953125 16.65234375 C-44.76750534 17.06660866 -44.76750534 17.06660866 -45.86135864 17.48924255 C-50.72495496 19.40045227 -55.35271471 21.60921324 -60 24 C-59.01 24.99 -58.02 25.98 -57 27 C-58.45792884 27.05399736 -59.91642712 27.09279177 -61.375 27.125 C-62.59316406 27.15980469 -62.59316406 27.15980469 -63.8359375 27.1953125 C-66 27 -66 27 -68 25 C-57.02820647 19.45547533 -45.74552635 14.80349127 -34.3125 10.3125 C-33.26341965 9.89939072 -33.26341965 9.89939072 -32.19314575 9.47793579 C-28.12962538 7.88076988 -24.05882829 6.3043627 -19.9776001 4.75299072 C-18.64750006 4.24654203 -17.31869746 3.73667397 -15.9911499 3.22357178 C-14.07500813 2.48532567 -12.15382993 1.76216179 -10.23046875 1.04296875 C-9.12469482 0.62426514 -8.0189209 0.20556152 -6.87963867 -0.22583008 C-4.01478528 -0.99602509 -2.72008017 -1.06007672 0 0 Z " fill="#2FBF8F" transform="translate(1712,568)"/>
<path d="M0 0 C14.52 0 29.04 0 44 0 C44 3.96 44 7.92 44 12 C33.44 12 22.88 12 12 12 C12 11.34 12 10.68 12 10 C21.9 10 31.8 10 42 10 C42 7.03 42 4.06 42 1 C28.14 1 14.28 1 0 1 C0 0.67 0 0.34 0 0 Z " fill="#F5F1E8" transform="translate(1823,1290)"/>
<path d="M0 0 C0.495 1.485 0.495 1.485 1 3 C0.1015625 4.76953125 0.1015625 4.76953125 -1.375 6.8125 C-4.1554211 10.78914879 -6.86888468 14.79801626 -9.5 18.875 C-9.88760498 19.47505859 -10.27520996 20.07511719 -10.67456055 20.69335938 C-13.54641057 25.18558459 -16.1157147 29.79484954 -18.6171875 34.50390625 C-20.3359144 37.60635395 -22.29217395 40.49141939 -24.296875 43.4140625 C-26.89549541 47.35967423 -29.2787804 51.43213296 -31.6652832 55.50878906 C-34.22919081 59.84885962 -37.02379483 63.93060172 -40 68 C-40.33 67.34 -40.66 66.68 -41 66 C-40.06640625 64.04248047 -40.06640625 64.04248047 -38.5625 61.6171875 C-38.00481934 60.70936523 -37.44713867 59.80154297 -36.87255859 58.86621094 C-36.25461426 57.87911133 -35.63666992 56.89201172 -35 55.875 C-34.36787598 54.85180664 -33.73575195 53.82861328 -33.08447266 52.77441406 C-31.06480519 49.5109179 -29.03329612 46.25501911 -27 43 C-25.71592082 40.93503574 -24.43206187 38.86993451 -23.1484375 36.8046875 C-15.48821621 24.50133942 -7.75387761 12.24448457 0 0 Z " fill="#2FBF8F" transform="translate(1674,645)"/>
<path d="M0 0 C-0.33 0.66 -0.66 1.32 -1 2 C-3.4140625 2.67578125 -3.4140625 2.67578125 -6.625 3.3125 C-13.61681223 4.82980712 -20.28194268 7.02078128 -27.03662109 9.33837891 C-30.38281732 10.46598296 -33.75286442 11.51551446 -37.125 12.5625 C-38.11898804 12.8711499 -38.11898804 12.8711499 -39.13305664 13.18603516 C-40.44625943 13.59290665 -41.75965209 13.99916585 -43.07324219 14.40478516 C-44.96876796 14.99035178 -46.86329952 15.57913363 -48.7578125 16.16796875 C-58.22327394 19.10077951 -58.22327394 19.10077951 -62 20 C-59.53136731 16.29705096 -57.15353788 15.76303016 -53.10546875 14.51171875 C-52.40973755 14.28771393 -51.71400635 14.06370911 -50.99719238 13.83291626 C-48.73064699 13.10671985 -46.45946182 12.39655136 -44.1875 11.6875 C-42.6343644 11.1954011 -41.08138613 10.70280539 -39.52856445 10.2097168 C-30.9407697 7.49420391 -22.33513843 4.83145316 -13.6875 2.3125 C-12.86080811 2.06910889 -12.03411621 1.82571777 -11.18237305 1.57495117 C-7.37843406 0.49926535 -3.96446231 -0.29278464 0 0 Z " fill="#2FBF8F" transform="translate(1776,547)"/>
<path d="M0 0 C-0.33 2.64 -0.66 5.28 -1 8 C-1.33 8 -1.66 8 -2 8 C-2 6.02 -2 4.04 -2 2 C-2.75539063 2.23074219 -3.51078125 2.46148438 -4.2890625 2.69921875 C-12.65259834 5.17694073 -21.06494058 7.18395444 -29.58227539 9.06201172 C-36.55816917 10.61995132 -43.43124646 12.42506298 -50.27832031 14.47631836 C-53.94930091 15.55084678 -57.16702339 16.26150913 -61 16 C-60 14 -60 14 -58.21264648 13.37744141 C-57.43993408 13.20390137 -56.66722168 13.03036133 -55.87109375 12.8515625 C-55.00935547 12.65304687 -54.14761719 12.45453125 -53.25976562 12.25 C-52.32841797 12.04375 -51.39707031 11.8375 -50.4375 11.625 C-48.49852067 11.1804599 -46.55971974 10.73514099 -44.62109375 10.2890625 C-43.66058105 10.07024414 -42.70006836 9.85142578 -41.71044922 9.62597656 C-38.1270974 8.79840369 -34.56463148 7.90495288 -31 7 C-24.55084107 5.37773734 -18.09168607 3.80095316 -11.625 2.25 C-10.24054688 1.91548828 -10.24054688 1.91548828 -8.828125 1.57421875 C-7.96960937 1.36925781 -7.11109375 1.16429687 -6.2265625 0.953125 C-5.45908691 0.76911133 -4.69161133 0.58509766 -3.90087891 0.39550781 C-2 0 -2 0 0 0 Z " fill="#2FBF8F" transform="translate(1845,529)"/>
<path d="M0 0 C0.66 0 1.32 0 2 0 C2.99 4.95 3.98 9.9 5 15 C0.71 15 -3.58 15 -8 15 C-6.50260417 12.265625 -5.00520833 9.53125 -3.5078125 6.796875 C-2.29580534 4.54869592 -1.12452433 2.2927195 0 0 Z " fill="none" transform="translate(1243,1441)"/>
<path d="M0 0 C2.67790416 4.72571322 3.11490472 9.68942832 4 15 C-0.29 15 -4.58 15 -9 15 C-2.97321429 3.75 -2.97321429 3.75 0 0 Z " fill="none" transform="translate(912,1441)"/>
<path d="M0 0 C2.64 0 5.28 0 8 0 C8.8125 2.0625 8.8125 2.0625 9 5 C7.86827339 6.73087599 6.71585491 8.45337616 5.44140625 10.08203125 C4.0196447 11.9738603 2.92199012 13.84974978 1.8125 15.9375 C-0.6392825 20.46627023 -3.33003512 24.82481204 -6.0625 29.1875 C-6.6980481 30.20348267 -6.6980481 30.20348267 -7.34643555 31.23999023 C-8.55653467 33.16505134 -9.77603926 35.08372855 -11 37 C-11.37237793 37.58990723 -11.74475586 38.17981445 -12.12841797 38.78759766 C-14.7664734 42.8832367 -14.7664734 42.8832367 -17 44 C-15.75107952 40.70499877 -14.35180555 37.71442832 -12.53125 34.69921875 C-11.80470215 33.49120605 -11.80470215 33.49120605 -11.06347656 32.25878906 C-10.28955566 30.98600098 -10.28955566 30.98600098 -9.5 29.6875 C-8.70674316 28.37410645 -8.70674316 28.37410645 -7.89746094 27.03417969 C-3.01407723 18.97119007 1.96806545 10.97094057 7 3 C4.69 2.34 2.38 1.68 0 1 C0 0.67 0 0.34 0 0 Z " fill="#2FBF8F" transform="translate(1692,601)"/>
<path d="M0 0 C2.5625 0.1875 2.5625 0.1875 4.5625 2.1875 C4.00694444 6.74305556 4.00694444 6.74305556 2.5625 8.1875 C0.125 8.375 0.125 8.375 -2.4375 8.1875 C-3.0975 7.5275 -3.7575 6.8675 -4.4375 6.1875 C-3.71780303 0.28598485 -3.71780303 0.28598485 0 0 Z " fill="#F5F1E8" transform="translate(1055.4375,1461.8125)"/>
<path d="M0 0 C1.4540625 0.0309375 1.4540625 0.0309375 2.9375 0.0625 C3.5625 2.9375 3.5625 2.9375 3.9375 6.0625 C1.9375 8.0625 1.9375 8.0625 -0.625 8.25 C-3.0625 8.0625 -3.0625 8.0625 -4.0625 7.0625 C-4.1875 4.0625 -4.1875 4.0625 -4.0625 1.0625 C-3.0625 0.0625 -3.0625 0.0625 0 0 Z " fill="#F5F1E8" transform="translate(1674.0625,1461.9375)"/>
<path d="M0 0 C0.33 0.66 0.66 1.32 1 2 C7.93 2 14.86 2 22 2 C20 4 20 4 17.84521484 4.22705078 C16.97590332 4.21657715 16.1065918 4.20610352 15.2109375 4.1953125 C14.26992188 4.18886719 13.32890625 4.18242188 12.359375 4.17578125 C11.37453125 4.15902344 10.3896875 4.14226562 9.375 4.125 C8.38242187 4.11597656 7.38984375 4.10695313 6.3671875 4.09765625 C3.91121866 4.07404116 1.45572832 4.04110799 -1 4 C-0.67 2.68 -0.34 1.36 0 0 Z " fill="#F5F1E8" transform="translate(976,1466)"/>
<path d="M0 0 C0.33 0.99 0.66 1.98 1 3 C0.03125 4.875 0.03125 4.875 -1.5 7 C-4.05163795 10.6357846 -6.50092911 14.30759196 -8.875 18.0625 C-9.47054688 19.00222656 -10.06609375 19.94195313 -10.6796875 20.91015625 C-11.11539062 21.59980469 -11.55109375 22.28945313 -12 23 C-12.33 22.34 -12.66 21.68 -13 21 C-12.02783203 18.95288086 -12.02783203 18.95288086 -10.5078125 16.46484375 C-9.96769531 15.57345703 -9.42757813 14.68207031 -8.87109375 13.76367188 C-8.29488281 12.83103516 -7.71867187 11.89839844 -7.125 10.9375 C-6.55652344 10.00099609 -5.98804688 9.06449219 -5.40234375 8.09960938 C-1.1888045 1.1888045 -1.1888045 1.1888045 0 0 Z " fill="#2FBF8F" transform="translate(1674,645)"/>
<path d="M0 0 C1 3 1 3 0.21484375 4.9453125 C-8.85931559 20.42965779 -8.85931559 20.42965779 -12 22 C-10.2657267 17.02642312 -7.56672043 12.68501047 -4.875 8.1875 C-4.40707031 7.39923828 -3.93914062 6.61097656 -3.45703125 5.79882812 C-2.30784603 3.86397546 -1.15542997 1.93112772 0 0 Z " fill="#2FBF8F" transform="translate(1687,623)"/>
<path d="M0 0 C0 3 0 3 -1.6796875 5.04296875 C-2.76636719 6.10451172 -2.76636719 6.10451172 -3.875 7.1875 C-4.95394531 8.26064453 -4.95394531 8.26064453 -6.0546875 9.35546875 C-8 11 -8 11 -10 11 C-8.55218207 7.55571735 -6.72305391 5.63869038 -3.875 3.25 C-3.15054688 2.63640625 -2.42609375 2.0228125 -1.6796875 1.390625 C-0.84824219 0.70226563 -0.84824219 0.70226563 0 0 Z " fill="#F5F1E8" transform="translate(714,1295)"/>
<path d="M0 0 C0.66 0.33 1.32 0.66 2 1 C-1.50897269 5.18423892 -5.08060535 9.19588166 -9 13 C-9.66 12.67 -10.32 12.34 -11 12 C-3.70159453 3.55353075 -3.70159453 3.55353075 0 0 Z " fill="#F5F1E8" transform="translate(858,720)"/>
<path d="M0 0 C-10.68484999 5.59682618 -10.68484999 5.59682618 -16 4 C-14.56328432 3.35242375 -13.12559584 2.70700547 -11.6875 2.0625 C-10.88699219 1.70285156 -10.08648438 1.34320312 -9.26171875 0.97265625 C-5.65166739 -0.57985288 -3.75303128 -1.16473384 0 0 Z " fill="#2FBF8F" transform="translate(1712,568)"/>
<path d="M0 0 C0 3 0 3 -1.75 5.04296875 C-2.4925 5.75066406 -3.235 6.45835938 -4 7.1875 C-4.7425 7.90292969 -5.485 8.61835937 -6.25 9.35546875 C-7.11625 10.16951172 -7.11625 10.16951172 -8 11 C-8.66 10.67 -9.32 10.34 -10 10 C-8.90033225 8.70450101 -7.79508199 7.41373929 -6.6875 6.125 C-6.07261719 5.40570312 -5.45773437 4.68640625 -4.82421875 3.9453125 C-3 2 -3 2 0 0 Z " fill="#F5F1E8" transform="translate(835,1295)"/>
<path d="M0 0 C-2.61331914 1.41554787 -5.30718129 2.58131312 -8.0625 3.6875 C-8.73410156 3.95949219 -9.40570312 4.23148438 -10.09765625 4.51171875 C-12 5 -12 5 -15 4 C-9.7105086 0.71193778 -6.25091235 -0.11794174 0 0 Z " fill="#2FBF8F" transform="translate(1729,562)"/>
<path d="M0 0 C0.66 0.33 1.32 0.66 2 1 C0.90653119 2.34212062 -0.2001575 3.67347975 -1.3125 5 C-2.23482422 6.11375 -2.23482422 6.11375 -3.17578125 7.25 C-5 9 -5 9 -8 9 C-5.36 6.03 -2.72 3.06 0 0 Z " fill="#F5F1E8" transform="translate(995,1297)"/>
<path d="M0 0 C-0.33 2.64 -0.66 5.28 -1 8 C-1.33 8 -1.66 8 -2 8 C-2 6.02 -2 4.04 -2 2 C-2.99 2.33 -3.98 2.66 -5 3 C-7.33299825 3.03954234 -9.66708189 3.04401732 -12 3 C-12 2.67 -12 2.34 -12 2 C-10.37548581 1.66430703 -8.75037083 1.3315204 -7.125 1 C-6.22007813 0.814375 -5.31515625 0.62875 -4.3828125 0.4375 C-2 0 -2 0 0 0 Z " fill="#2FBF8F" transform="translate(1845,529)"/>
<path d="M0 0 C-1.66751148 3.94139078 -4.22710649 6.7892812 -7 10 C-7.33 9.01 -7.66 8.02 -8 7 C-6.85546875 5.17578125 -6.85546875 5.17578125 -5.1875 3.3125 C-4.37345703 2.37857422 -4.37345703 2.37857422 -3.54296875 1.42578125 C-2 0 -2 0 0 0 Z " fill="#F5F1E8" transform="translate(1424,1437)"/>
<path d="M0 0 C0.33 0 0.66 0 1 0 C1 1.98 1 3.96 1 6 C-1.31 6 -3.62 6 -6 6 C-6 5.01 -6 4.02 -6 3 C-3.03 3.495 -3.03 3.495 0 4 C0 2.68 0 1.36 0 0 Z " fill="#F5F1E8" transform="translate(859,1464)"/>
<path d="M0 0 C1.98 0 3.96 0 6 0 C5.67 2.64 5.34 5.28 5 8 C3 5 3 5 3 1 C1.68 1.33 0.36 1.66 -1 2 C-0.67 1.34 -0.34 0.68 0 0 Z " fill="#F5F1E8" transform="translate(470,1434)"/>
<path d="M0 0 C0.66 0 1.32 0 2 0 C2.33 1.98 2.66 3.96 3 6 C0.69 6 -1.62 6 -4 6 C-3.01 5.34 -2.02 4.68 -1 4 C-0.27617533 1.94074861 -0.27617533 1.94074861 0 0 Z " fill="#F5F1E8" transform="translate(1255,1464)"/>
<path d="M0 0 C1.10844919 3.32534757 0.84454356 5.62182575 0 9 C-0.66 8.01 -1.32 7.02 -2 6 C-2.99 6.495 -2.99 6.495 -4 7 C-2.79618552 4.50638429 -1.54571278 2.31856917 0 0 Z " fill="none" transform="translate(466,1447)"/>
</svg>
